<svg xmlns="http://www.w3.org/2000/svg" version="1.1" id="svg8" width="154.00073" height="38.540001" viewBox="0 0 154.00073 38.540001">
  <g fill-rule="evenodd" clip-rule="evenodd" transform="translate(-0.99927438,-0.73)">
    <path fill="#0080c7" d="m 98.68,36.37 v 0.5 l 3.55,2.3 v -2.01 c 0,-6.57 0.01,-13.13 0.01,-19.7 h 0.03 c 0,-0.15 -0.01,-0.3 -0.01,-0.45 0,-7.03 5.7,-12.72 12.72,-12.72 h 39.95 V 0.74 h -39.58 c -0.12,0 -0.24,-0.01 -0.37,-0.01 -8.96,0 -16.24,7.25 -16.28,16.2 h -0.02 z m 52.77,0 v 0.5 l 3.55,2.3 V 17.98 h -0.01 v -0.53 c 0,-0.64 0.03,-1.25 -0.04,-1.89 -0.48,-4.38 -4.33,-7.57 -8.71,-7.81 V 7.73 h -31.6 v 0.01 a 9.297,9.297 0 0 0 -8.81,9.17 v 5.8 l 0.01,6.84 c 0,0.64 -0.03,1.25 0.04,1.89 0.5,4.56 4.66,7.83 9.27,7.83 5.03,0 9.13,-3.97 9.32,-8.94 h 0.01 v -3.04 h 0.01 v -3.58 c -3.32,0 -6.43,-1.08 -8.96,-2.96 -2.32,-1.72 -4.14,-4.1 -5.17,-6.93 a 5.75,5.75 0 0 1 4.53,-2.54 h 21.08 c 1.24,0.06 2.38,0.51 3.3,1.23 l 0.06,0.04 c 0.57,0.46 1.06,1.04 1.42,1.69 a 8.16,8.16 0 0 0 -6.05,-0.73 8.153,8.153 0 0 0 -4.98,3.82 v 0.01 a 8.196,8.196 0 0 0 -0.82,6.22 8.153,8.153 0 0 0 3.82,4.98 c 0.63,0.36 1.3,0.64 1.98,0.82 0.61,0.17 1.24,0.26 1.87,0.28 v -3.59 a 5.08,5.08 0 0 1 -0.95,-0.15 c -0.39,-0.1 -0.77,-0.26 -1.11,-0.46 a 4.606,4.606 0 0 1 -2.16,-2.81 c -0.31,-1.15 -0.18,-2.41 0.46,-3.51 0.64,-1.1 1.66,-1.85 2.81,-2.16 1.15,-0.31 2.41,-0.18 3.51,0.46 0.71,0.41 1.29,1 1.69,1.7 0.17,0.29 0.31,0.61 0.41,0.94 0.19,0.64 0.23,1.51 0.23,2.19 v 0.55 c -0.09,0 -0.18,-0.01 -0.27,-0.01 v 0.02 h -2.98 v 6.81 h 3.47 V 26.4 c 0.24,0.02 0.48,0.07 0.71,0.13 a 4.643,4.643 0 0 1 3.27,3.27 c 0.3,1.14 0.18,2.4 -0.45,3.5 v 0.01 a 4.634,4.634 0 0 1 -2.81,2.16 c -1.11,0.3 -2.33,0.19 -3.41,-0.4 l -0.11,-0.06 a 4.626,4.626 0 0 1 -2.29,-3.68 H 133 c 0.05,1.34 0.44,2.63 1.1,3.77 a 8.247,8.247 0 0 0 2.9,2.94 l 0.11,0.06 a 8.19,8.19 0 0 0 6.22,0.82 8.17,8.17 0 0 0 4.92,-3.72 l 0.05,-0.1 c 1.14,-1.96 1.37,-4.2 0.82,-6.22 A 8.153,8.153 0 0 0 145.3,23.9 c -0.09,-0.06 -0.19,-0.11 -0.29,-0.16 0,-2.1 0,-4.19 -0.01,-6.3 0,-0.64 0.03,-1.25 -0.04,-1.89 a 8.351,8.351 0 0 0 -1.76,-4.27 h 2.78 c 1.24,0.06 2.38,0.51 3.3,1.23 l 0.06,0.04 a 5.718,5.718 0 0 1 2.13,4.35 c -0.02,0 -0.02,18.54 -0.02,19.47 z m -30.54,-6.04 v -3.38 a 18.68,18.68 0 0 1 -7.5,-3.32 c -1.53,-1.13 -2.89,-2.5 -4.01,-4.06 v 10.52 c 0.04,1.76 0.86,3.32 2.14,4.35 l 0.06,0.04 c 0.98,0.77 2.22,1.23 3.57,1.23 3.05,0 5.55,-2.38 5.74,-5.38 z"/>
    <path fill="#ec1b2e" d="m 85.89,18.31 c 2.15,0 4.12,0.73 5.69,1.96 V 16.9 a 5.744,5.744 0 0 0 -2.14,-4.35 l -0.06,-0.04 a 5.752,5.752 0 0 0 -3.51,-1.23 v 0.01 H 73.34 v 21.79 h 0.02 v 6.1 l -3.55,-2.3 V 11.28 H 43.28 c -0.02,1.81 0.51,3.54 1.47,4.99 l 0.07,0.1 c 1.2,1.76 3.03,3.1 5.24,3.64 0.1,0.02 0.21,0.05 0.32,0.07 0.69,0.14 1.4,0.2 2.1,0.17 0.32,-0.01 0.65,-0.04 0.97,-0.09 0.44,-0.91 1.03,-1.76 1.79,-2.51 a 9.24,9.24 0 0 1 13.07,0 l 0.03,0.03 -1.74,1.75 -4.76,4.76 4.04,4.04 2.46,2.46 -0.03,0.03 c -3.53,3.53 -9.2,3.61 -12.82,0.24 a 12.76,12.76 0 0 1 -2.9,4.51 c -2.29,2.29 -5.44,3.7 -8.93,3.7 -3.49,0 -6.64,-1.41 -8.93,-3.7 -2.29,-2.29 -3.7,-5.44 -3.7,-8.93 h 0.02 L 31.09,7.73 h 3.57 l -0.05,18.81 h 0.01 v 0.06 a 9.036,9.036 0 0 0 2.65,6.34 9.01,9.01 0 0 0 6.39,2.65 c 2.5,0 4.76,-1.01 6.4,-2.65 a 8.997,8.997 0 0 0 2.29,-3.87 c -1.42,0.88 -3.1,1.39 -4.9,1.39 -3.14,0 -6.07,-1.53 -7.77,-3.96 A 8.261,8.261 0 0 1 38.21,22.63 C 38.14,21.99 38.17,21.39 38.17,20.74 L 38.16,13.9 V 7.73 H 85.9 c 4.58,0.02 8.7,3.29 9.2,7.83 0.07,0.64 0.04,1.24 0.04,1.89 l 0.01,6.84 V 39.18 L 91.6,36.88 V 26.66 a 5.761,5.761 0 0 0 -11.45,0.91 c 0,3.18 2.58,5.76 5.76,5.76 h 0.04 v 3.48 h -0.04 c -5.1,0 -9.24,-4.14 -9.24,-9.24 a 9.219,9.219 0 0 1 9.22,-9.26 z M 12.43,30.33 v -3.38 a 18.68,18.68 0 0 0 11.51,-7.38 v 10.52 a 5.76,5.76 0 0 1 -2.14,4.35 l -0.06,0.04 c -0.98,0.77 -2.22,1.23 -3.57,1.23 -3.05,0 -5.56,-2.38 -5.74,-5.38 z M 8.85,27.29 v 3.04 h 0.01 c 0.19,4.97 4.29,8.94 9.32,8.94 4.61,0 8.77,-3.28 9.27,-7.83 0.07,-0.64 0.04,-1.24 0.04,-1.89 L 27.5,22.71 V 7.68 H 18.03 C 12.98,7.75 8.89,11.84 8.85,16.9 h 3.55 c 0.04,-3.1 2.53,-5.61 5.62,-5.67 h 5.68 c -0.36,1.77 -0.81,3.14 -1.78,4.85 a 15.042,15.042 0 0 1 -4.13,4.66 15.046,15.046 0 0 1 -8.96,2.96 v 3.58 h 0.02 z m 50.51,-5.56 3.25,-3.25 c -1.74,-0.26 -3.58,0.28 -4.93,1.62 a 5.764,5.764 0 0 0 0,8.15 5.744,5.744 0 0 0 4.92,1.62 L 56.91,24.18 Z M 41.69,18.76 v 2.51 c 0.04,1.76 0.86,3.32 2.14,4.35 l 0.06,0.04 c 0.41,0.33 0.87,0.59 1.36,0.8 0.68,0.28 1.42,0.43 2.19,0.43 0.8,0 1.56,-0.16 2.25,-0.46 a 5.77,5.77 0 0 0 2.63,-2.25 C 51.41,24.19 50.5,24.1 49.6,23.92 A 12.7,12.7 0 0 1 41.69,18.76 Z M 1,36.87 l 3.55,2.3 c 0,-6.6 0.01,-13.2 0.01,-19.8 0,-1.13 -0.03,-2.61 0.1,-3.74 C 5.34,9.26 10.74,4.29 17.3,4.29 42.52,4.29 69.93,4.3 95.15,4.3 V 0.75 C 69.93,0.75 42.52,0.73 17.3,0.73 9.01,0.73 2.16,6.93 1.15,14.95 0.98,16.27 1,17.52 1,18.83 Z"/>
  </g>
</svg>
