<svg xmlns="http://www.w3.org/2000/svg" height="39" width="168" version="1.1" viewBox="0 0 168 39">
  <g transform="matrix(0.18265036,0,0,0.18265036,-67.738487,-7.606074)">
    <path fill="#e64126" d="m826,62,0-14,3,0,3,0,0,14,0,14-3,0-3,0,0-14zm-33.35,18.75c-10.68-18.633-10.89-19.101-9.03-20.462,0.97-0.709,2.25-1.288,2.85-1.288,0.59624,0,3.9347,5.2574,7.4188,11.683,5.9262,10.93,6.2186,11.768,4.5337,13-2.6596,1.9448-3.104,1.7189-5.7709-2.9331zm68.1,4.17c-0.96-0.561-1.75-1.518-1.75-2.126,0-0.85162,11.27-22.053,12.557-23.625,0.22005-0.26848,4.1895,1.4964,5.2086,2.3158,0.1463,0.11765-1.8452,3.9942-4.4255,8.6146s-5.625,10.084-6.766,12.142c-2.2836,4.1188-2.3182,4.138-4.8245,2.6782zm-98.25,17.48c-6.05-3.63-11.15-6.741-11.33-6.914-0.64-0.606,1.91-4.486,2.95-4.486,1.7609,0,22.071,12.326,22.606,13.72,0.48789,1.2714-1.3379,4.282-2.5951,4.279-0.34516-0.00084-5.5776-2.9707-11.628-6.5997zm120.32,5.1145c-0.99235-2.178-0.95042-2.8256,0.23275-3.595,0.79373-0.51617,5.9063-3.7021,11.361-7.0799l9.9181-6.1414,1.8846,2.3274,1.8846,2.3274-7.3027,4.6698c-4.0165,2.5684-9.4325,5.9025-12.035,7.409l-4.7328,2.7392-1.2104-2.6565zm-67.32,86.07c-8.1733-2.3267-10.64-3.4611-18.237-8.3865l-7.23-4.69-0.03-16.5c-0.0209-15.216-0.20642-16.895-2.3836-21.57-1.6951-3.6403-3.6922-5.9519-7.0821-8.1973-2.5967-1.72-5.2053-3.2886-5.797-3.4858-0.75396-0.25132-0.70461-1.8375,0.16498-5.3027,4.85-19.3,21.5-35.711,41.1-40.512,17.045-4.174,37.401,1.0679,50.214,12.93,8.8398,8.1841,14.655,17.8,17.171,28.391l0.65316,2.75h-12.519-12.519v5.4683,5.4683l11.75,0.28173,11.75,0.28174-5.777,2.9272c-6.9145,3.5035-13.234,8.7258-15.23,12.586-1.0752,2.0792-1.5082,7.2037-1.6601,19.65-0.11307,9.2603-0.37627,15.603-0.58488,14.095-0.37743-2.7283-0.3945-2.7339-3.4765-1.1401-10.885,5.6289-29.757,7.9535-40.272,4.9605z"/>
    <path fill="#211e1f" d="m852,250.45c-3.575-0.7645-9.425-2.3526-13-3.5291-6.6818-2.1989-25.785-11.661-29.697-14.71l-2.1969-1.712,8.1969-9.5093c4.5083-5.2301,9.5956-11.218,11.305-13.306l3.1082-3.7966,4.6418,2.2551c4.8579,2.3602,5.2496,3.1276,3.6898,7.2301-0.82597,2.1725-0.50017,2.9004,2.4627,5.5018,16.883,14.823,54.551,10.964,80.046-8.2013,22.549-16.95,25.92-32.806,10.597-49.848-7.6094-8.4634-13.744-9.6916-26.695-5.3441-18.71,6.2809-35.655,20.417-27.554,22.987,2.5405,0.80633,23.341-5.9785,25.441-8.2983,2.1193-2.3418,2.0873-2.6907-0.46585-5.0693l-2.1209-1.9759,5.7202-1.6629,5.7202-1.6629,3.5248,3.3498c6.7291,6.3952,9.2765,10.737,9.2765,15.813,0,3.7943-0.51224,5.1437-2.75,7.2442-5.9976,5.6298-26.033,13.282-41.646,15.905-6.5668,1.1034-7.9041,1.0449-12.018-0.5262-7.1825-2.743-7.7237-4.5311-7.6363-25.229,0.0561-13.283,0.42635-18.184,1.5358-20.329,2.0031-3.8736,8.3142-9.0925,15.237-12.6l5.78-2.91-11.75-0.28-11.75-0.28v-5.4683-5.4683h201.56c150.34,0,202.74,0.29669,206.19,1.1675,3.1804,0.80084,5.9683,2.4992,8.8766,5.4075,7.2212,7.2212,7.3724,8.4131,7.3724,58.107v43.318h-13-13v-43.032c0-46.695-0.089-47.533-5.5137-51.8-2.3392-1.84-4.0494-2.1679-11.308-2.1679h-8.5523l2.5649,2.75c1.4107,1.5125,3.0699,3.7329,3.6871,4.9343,0.779,1.5162,1.1222,15.508,1.1222,45.75v43.566h-13-13v-22.5c0-33.783,1.8027-33.443-47.21-8.8925l-12.71,6.3663-2.6942-2.3174c-2.1545-1.8533-2.7847-3.4088-3.146-7.7664-0.6042-7.2861,0.675-10.018,11.616-24.805,9.0269-12.201,11.154-16.844,7.2493-15.823-1.0419,0.27246-11.392,6.2009-23,13.174-21.075,12.66-22.962,14.307-19.906,17.363,0.66,0.66,2.235,1.2,3.5,1.2,2.8047,0,2.8059,0.0282,0.2012,4.4428-1.9769,3.3506-2.3979,3.5559-7.25,3.5352-5.3799-0.0229-12.197-2.5078-14.493-5.283-0.9857-1.1912-1.2512-4.3648-1-11.952,0.329-9.9354,0.4674-10.489,3.6203-14.466,3.6402-4.5924,17.088-14.043,28.971-20.358,7.6295-4.0549,7.8847-4.1133,16.251-3.7167,7.8108,0.3702,9.3704,0.82544,19.234,5.6145,13.41,6.5106,13.838,7.4376,7.5767,16.4-2.4141,3.4555-4.7517,6.8711-5.1948,7.5903-0.443,0.71915,3.3995-0.80595,8.539-3.3891,11.547-5.8034,16.824-6.2696,24.702-2.182l5.1422,2.6679v-10.484c0-11.689-1.1925-15.853-5.5137-19.252-2.735-2.1513-3.1019-2.1679-48.012-2.1679h-45.256l-9.2057,6.0448c-5.0631,3.3246-12.087,8.8565-15.609,12.293l-6.4038,6.2482v16.592,16.592l4.0513,3.9322c4.6224,4.4865,28.077,18.901,33.098,20.341,5.3976,1.548,10.347,1.1409,13.175-1.0837l2.5946-2.0409,4.2903,2.1638c2.3597,1.1901,4.4542,2.3099,4.6546,2.4885,1.0563,0.94152-10.645,12.54-15.137,15.003-12.23,6.7077-31.836,2.1229-53.862-12.596-7.7265-5.1631-12.562-9.573-14.451-13.178-1.0758-2.0535-1.4147-7.2714-1.4147-21.783,0-18.203,0.1112-19.3,2.4136-23.8,3.18-6.2146,9.5616-12.093,24.999-23.028l5.9128-4.1884h-28.351-28.351l2.2498,2.096c1.2374,1.1528,2.6723,3.2071,3.1886,4.5651,0.5326,1.401,0.9387,21.257,0.9387,45.904v43.435h-13.5-13.5l-0.01-41.75c-0.01-43.997-0.327-47.674-4.5312-51.878-2.2-2.12-3.3-2.37-10.9-2.37h-8.5153l2.403,3.5411c1.381,2.0351,2.6644,5.7564,3.0176,8.75,0.33799,2.8649,0.48056,22.759,0.31682,44.209l-0.2977,39h-13-13l-0.30599-4.7793c-0.28756-4.4914-0.64897-5.049-6-9.2568-3.1317-2.4626-7.6159-5.2142-9.9649-6.1145l-4.2709-1.6371-6.7291,6.4772c-16.639,16.016-36.019,26.522-56.067,30.393-9.1695,1.7708-27.579,1.7036-36.162-0.13193zm118.53-102.12c-0.29195-1.1951-1.6959-3.5576-3.12-5.25l-2.59-3.08h-20.571-20.571l6.219,3.1077c16.163,8.0768,26.809,23.834,28.723,42.512,0.59411,5.7988,0.96522,6.5895,4.2641,9.0856,1.9874,1.5037,4.5134,3.8622,5.6134,5.2412l2,2.5072,0.28109-25.977c0.15461-14.287,0.0422-26.955-0.2497-28.15zm-341.53,83.25v-5.4232l-6.75-4.4163c-22.313-14.599-49.443-16.802-77.5-6.2928l-8.75,3.2773v-14.177-14.177l4.25-2.3428c19.328-10.655,57.708-34.753,58.457-36.705,1.0137-2.6418-2.1049-8.7953-4.6422-9.1596-2.9441-0.42269-40.891,16.672-42.136,18.982-0.61308,1.1379-0.28773,2.4028,1.0581,4.1137l1.9434,2.4706-4.0417,1.8226c-3.9309,1.7726-4.139,1.7702-7.5892-0.0879-4.9299-2.6549-6.4481-5.4402-7.0495-12.933-0.6089-7.5856,0.58356-10.068,6.8194-14.194,2.8963-1.9167,3.6588-2.8909,2.7257-3.4828-1.8661-1.1838-11.96-1.0397-15.58,0.22243-6.34,2.21-6.22,1.2-6.22,51.39v45.54h-13.5-13.5v-3.5218c0-3.2197-0.53213-3.8657-6.2032-7.5311-7.8712-5.0874-15.419-7.3343-24.297-7.2326-5.8173,0.0667-9.2809,0.926-20.5,5.0862-16.681,6.1856-23.78,7.6373-33.942,6.9408-14.323-0.98172-25.991-8.8012-31.682-21.232-4.3776-9.562-6.5136-24.572-4.7509-33.385l0.625-3.125h15.375,15.375v5c0,3.7778-0.36667,5-1.5,5-0.825,0-2.4338,0.93384-3.5752,2.0752-1.7046,1.7046-1.96,2.8206-1.4301,6.25,2.2101,14.303,7.6515,20.022,20.243,21.277,4.8435,0.48275,7.6757-0.0173,17.762-3.1362,6.6-2.0408,15.15-4.5478,19-5.5712,11.891-3.1608,26.294-2.1586,35.2,2.4492,1.7602,0.91067,3.4477,1.6558,3.75,1.6558,0.29-0.03,0.54-8.07,0.54-17.9v-17.868l-10.25,3.8051c-25.417,9.4354-58.407,21.764-60,22.422-1.6028,0.66212-1.752-0.19029-1.7737-10.134l-0.03-10.86,8.28-7.72,8.27-7.72-19.25-0.03-19.25-0.03,0.0333-6.25c0.0381-7.1571,0.52545-7.941,9.4491-15.199,22.371-18.196,51.28-20.214,78.268-5.4619,6.617,3.6168,7.25,3.7872,7.25,1.9514,0-2.7135,9.5804-7.5134,18.069-9.053,10.613-1.9248,25.986,0.88896,37.705,6.9016l3.5851,1.8393,8.7164-3.869c10.978-4.873,15.888-5.5928,23.351-3.4232,4.7275,1.3743,6.8573,2.8088,12.159,8.1892,7.0171,7.1215,14.379,19.233,14.4,23.691,0.007,1.5487-0.44779,3.6771-1.0112,4.73-1.3857,2.5892-15.608,13.979-23.26,18.627l-6.2012,3.767,4.4927,0.8051c13.214,2.368,23.655,6.4142,33.097,12.826l5.8959,4.0038-0.007-30.287c-0.006-27.985-0.14983-30.505-1.8913-33.146-2.484-3.7678-6.5959-6.38-11.291-7.1732-2.88-0.5-3.83-1.13-3.83-2.57,0-1.8668,1.865-1.9115,78.75-1.8882,43.312,0.0131,80.467,0.42239,82.566,0.90949,6.1162,1.4196,11.714,5.9352,14.335,11.564,2.3286,5.0004,2.3297,5.0236,2.3394,49.253v44.26h-13.454-13.454l-0.29569-6.7002-0.29569-6.7002-8-4.2992c-10.2-5.4815-22.071-9.3104-31.03-10.008-13.742-1.0704-30.834,2.7818-33.37,7.5208-1.6232,3.0329,1.4217,6.179,6.6602,6.8816,2.3319,0.31277,4.2398,0.86271,4.2398,1.2221,0,0.35938-2.3823,1.9421-5.294,3.5171l-5.294,2.8637-5.456-1.7859c-7.4719-2.4457-12.023-4.8531-14.8-7.8284-2.2044-2.3622-2.3231-3.136-2-13.034,0.32941-10.091,0.46516-10.65,3.3084-13.615,4.2281-4.4097,12.282-7.9018,23.02-9.9814,10.53-2.0394,11.516-2.4636,11.516-4.9568,0-2.9026-2.6306-4.4167-20.25-11.656-16.255-6.6784-16.75-6.9676-16.75-9.793,0-6.7818,5.6104-11.439,20-16.602l5.5-1.9734-22.937-0.0361-22.937-0.0361,2.5649,2.75c1.4107,1.5125,3.0699,3.7329,3.6871,4.9343,0.77956,1.5174,1.1222,15.638,1.1222,46.25v44.09h-13.5-13.5v-5.4232zm132.48-85.97c-2.43-5.13-6.74-6.61-19.28-6.61-9.2966,0-12.271,0.45599-22.216,3.4064-14.78,4.38-14.98,4.47-14.98,6.64,0,2.344-0.15224,2.2571,17,9.7009,19.688,8.5443,26,13.078,26,18.675,0,1.1867-4.4018,3.4935-12.689,6.6498-2.7519,1.0481-2.6578,1.1302,4.4819,3.9099,7.7178,3.0048,20.564,10.206,21.907,12.281,0.43981,0.67916,0.91968-10.606,1.0664-25.079,0.22392-22.091,0.0179-26.838-1.2837-29.581zm-286.25,13.796c10.045-3.6292,19.516-7.0532,21.046-7.609,2.3675-0.85995,2.591-1.2419,1.5-2.564-2.2047-2.6716-9.4978-5.2938-17.093-6.1455-13.035-1.4619-39.864,2.0135-42.794,5.5435-2.1625,2.6056,0.7721,3.3418,13.386,3.3582,14.422,0.0187,15.289,0.83664,8.3552,7.8767-4.646,4.7169-5.4914,6.1386-3.6506,6.1386,0.5423,0,9.2048-2.9693,19.25-6.5985z"/>
  </g>
</svg>
