<svg version="1.2" xmlns="http://www.w3.org/2000/svg" viewBox="0 0 1200 800" width="1200" height="800">
	<title>10798281_19362653-ai</title>
	<defs>
		<linearGradient id="g1" x1="303.6" y1="489.4" x2="303.6" y2="352.7" gradientUnits="userSpaceOnUse">
			<stop offset="0" stop-color="#dbccff"/>
			<stop offset="1" stop-color="#d1bbff"/>
		</linearGradient>
		<linearGradient id="g2" x1="305.9" y1="494.4" x2="305.9" y2="357.7" gradientUnits="userSpaceOnUse">
			<stop offset="0" stop-color="#b5a6e7"/>
			<stop offset="1" stop-color="#7760bf"/>
		</linearGradient>
		<linearGradient id="g3" x1="309.7" y1="462" x2="309.7" y2="404.5" gradientUnits="userSpaceOnUse">
			<stop offset="0" stop-color="#b5a6e7"/>
			<stop offset="1" stop-color="#7760bf"/>
		</linearGradient>
		<linearGradient id="g4" x1="288.8" y1="406.9" x2="304.2" y2="399.7" gradientUnits="userSpaceOnUse">
			<stop offset="0" stop-color="#8b8be0"/>
			<stop offset="1" stop-color="#a177b7"/>
		</linearGradient>
		<linearGradient id="g5" x1="285.1" y1="418.2" x2="280.8" y2="408.8" gradientUnits="userSpaceOnUse">
			<stop offset="0" stop-color="#ffffff"/>
			<stop offset="1" stop-color="#a177b7"/>
		</linearGradient>
		<linearGradient id="g6" x1="327.6" y1="465.6" x2="299.6" y2="405.7" gradientUnits="userSpaceOnUse">
			<stop offset="0" stop-color="#000000"/>
			<stop offset="1" stop-color="#ffffff"/>
		</linearGradient>
		<linearGradient id="g7" x1="424.8" y1="800" x2="424.8" y2="621.6" gradientUnits="userSpaceOnUse">
			<stop offset="0" stop-color="#6456c0"/>
			<stop offset="1" stop-color="#5f2c95"/>
		</linearGradient>
		<radialGradient id="g8" cx="473.7" cy="735.8" r="31.4" gradientUnits="userSpaceOnUse">
			<stop offset="0" stop-color="#4b474b"/>
			<stop offset="1" stop-color="#000000"/>
		</radialGradient>
		<radialGradient id="g9" cx="640.1" cy="734.9" r="31.6" gradientUnits="userSpaceOnUse">
			<stop offset="0" stop-color="#4b474b"/>
			<stop offset="1" stop-color="#000000"/>
		</radialGradient>
		<linearGradient id="g10" x1="502.9" y1="670.6" x2="549.6" y2="670.6" gradientUnits="userSpaceOnUse">
			<stop offset="0" stop-color="#9e8cef"/>
			<stop offset="1" stop-color="#caafee"/>
		</linearGradient>
		<linearGradient id="g11" x1="612.2" y1="670.6" x2="565.4" y2="670.6" gradientUnits="userSpaceOnUse">
			<stop offset="0" stop-color="#9e8cef"/>
			<stop offset="1" stop-color="#caafee"/>
		</linearGradient>
		<linearGradient id="g12" x1="458.6" y1="800" x2="458.6" y2="621.6" gradientUnits="userSpaceOnUse">
			<stop offset="0" stop-color="#ccccff"/>
			<stop offset="1" stop-color="#755cbb"/>
		</linearGradient>
		<linearGradient id="g13" x1="561.7" y1="710.8" x2="561.7" y2="662.1" gradientUnits="userSpaceOnUse">
			<stop offset="0" stop-color="#ccccff"/>
			<stop offset="1" stop-color="#755cbb"/>
		</linearGradient>
		<linearGradient id="g14" x1="484.1" y1="692.9" x2="484.1" y2="645.2" gradientUnits="userSpaceOnUse">
			<stop offset="0" stop-color="#ccccff"/>
			<stop offset="1" stop-color="#755cbb"/>
		</linearGradient>
		<linearGradient id="g15" x1="526.6" y1="352.9" x2="526.6" y2="281.7" gradientUnits="userSpaceOnUse">
			<stop offset="0" stop-color="#d5cdf8"/>
			<stop offset="1" stop-color="#f3edfb"/>
		</linearGradient>
		<linearGradient id="g16" x1="530.4" y1="277.7" x2="599.7" y2="277.7" gradientUnits="userSpaceOnUse">
			<stop offset="0" stop-color="#ccccff"/>
			<stop offset="1" stop-color="#755cbb"/>
		</linearGradient>
		<linearGradient id="g17" x1="372" y1="634.8" x2="372" y2="278.6" gradientUnits="userSpaceOnUse">
			<stop offset="0" stop-color="#9e8cef"/>
			<stop offset="1" stop-color="#caafee"/>
		</linearGradient>
		<linearGradient id="g18" x1="397.2" y1="323.6" x2="484.6" y2="323.6" gradientUnits="userSpaceOnUse">
			<stop offset="0" stop-color="#ccccff"/>
			<stop offset="1" stop-color="#755cbb"/>
		</linearGradient>
		<linearGradient id="g19" x1="347.5" y1="514.3" x2="347.5" y2="346.5" gradientUnits="userSpaceOnUse">
			<stop offset="0" stop-color="#9e8cef"/>
			<stop offset="1" stop-color="#dac7f3"/>
		</linearGradient>
		<linearGradient id="g20" x1="687.3" y1="400.7" x2="794.7" y2="400.7" gradientUnits="userSpaceOnUse">
			<stop offset="0" stop-color="#a999f1"/>
			<stop offset="1" stop-color="#dac7f3"/>
		</linearGradient>
		<linearGradient id="g21" x1="335.7" y1="323.5" x2="335.7" y2="279.5" gradientUnits="userSpaceOnUse">
			<stop offset="0" stop-color="#ffc2a9"/>
			<stop offset="1" stop-color="#ff9595"/>
		</linearGradient>
		<linearGradient id="g22" x1="365.2" y1="322.6" x2="365.2" y2="249.3" gradientUnits="userSpaceOnUse">
			<stop offset="0" stop-color="#ffeadb"/>
			<stop offset="1" stop-color="#c27cb6"/>
		</linearGradient>
		<linearGradient id="g23" x1="345.9" y1="372.4" x2="345.9" y2="259.5" gradientUnits="userSpaceOnUse">
			<stop offset="0" stop-color="#ffc2a9"/>
			<stop offset="1" stop-color="#ff9595"/>
		</linearGradient>
		<linearGradient id="g24" x1="363.1" y1="333.2" x2="398.6" y2="333.2" gradientUnits="userSpaceOnUse">
			<stop offset="0" stop-color="#d1a1d6"/>
			<stop offset="1" stop-color="#bd89c4"/>
		</linearGradient>
		<linearGradient id="g25" x1="735.3" y1="441.2" x2="735.3" y2="290.9" gradientUnits="userSpaceOnUse">
			<stop offset="0" stop-color="#ffc2a9"/>
			<stop offset="1" stop-color="#ff9595"/>
		</linearGradient>
		<linearGradient id="g26" x1="775.6" y1="392.8" x2="775.6" y2="317.8" gradientUnits="userSpaceOnUse">
			<stop offset="0" stop-color="#ffeadb"/>
			<stop offset="1" stop-color="#c27cb6"/>
		</linearGradient>
		<linearGradient id="g27" x1="808.8" y1="366.9" x2="808.8" y2="334.1" gradientUnits="userSpaceOnUse">
			<stop offset="0" stop-color="#ffb0b0"/>
			<stop offset="1" stop-color="#ffc2a9"/>
		</linearGradient>
		<linearGradient id="g28" x1="837.9" y1="372.1" x2="837.9" y2="353.7" gradientUnits="userSpaceOnUse">
			<stop offset="0" stop-color="#ffb0b0"/>
			<stop offset="1" stop-color="#ffc2a9"/>
		</linearGradient>
		<linearGradient id="g29" x1="771.3" y1="387.1" x2="805.6" y2="387.1" gradientUnits="userSpaceOnUse">
			<stop offset="0" stop-color="#d1a1d6"/>
			<stop offset="1" stop-color="#bd89c4"/>
		</linearGradient>
		<linearGradient id="g30" x1="647.4" y1="526.9" x2="647.4" y2="358.2" gradientUnits="userSpaceOnUse">
			<stop offset="0" stop-color="#ccccff"/>
			<stop offset="1" stop-color="#755cbb"/>
		</linearGradient>
		<linearGradient id="g31" x1="351.4" y1="345" x2="634.1" y2="345" gradientUnits="userSpaceOnUse">
			<stop offset="0" stop-color="#ccccff"/>
			<stop offset="1" stop-color="#755cbb"/>
		</linearGradient>
		<linearGradient id="g32" x1="600.6" y1="429.7" x2="654.6" y2="429.7" gradientUnits="userSpaceOnUse">
			<stop offset="0" stop-color="#ccedff"/>
			<stop offset="1" stop-color="#755cbb"/>
		</linearGradient>
		<linearGradient id="g33" x1="551.6" y1="519.7" x2="631" y2="519.7" gradientUnits="userSpaceOnUse">
			<stop offset="0" stop-color="#ccedff"/>
			<stop offset="1" stop-color="#755cbb"/>
		</linearGradient>
		<linearGradient id="g34" x1="555.7" y1="557.9" x2="640.1" y2="557.9" gradientUnits="userSpaceOnUse">
			<stop offset="0" stop-color="#ccedff"/>
			<stop offset="1" stop-color="#755cbb"/>
		</linearGradient>
		<linearGradient id="g35" x1="422.4" y1="487.7" x2="422.4" y2="392.5" gradientUnits="userSpaceOnUse">
			<stop offset="0" stop-color="#ccedff"/>
			<stop offset="1" stop-color="#755cbb"/>
		</linearGradient>
		<linearGradient id="g36" x1="461.5" y1="495.7" x2="461.5" y2="423.5" gradientUnits="userSpaceOnUse">
			<stop offset="0" stop-color="#ccedff"/>
			<stop offset="1" stop-color="#755cbb"/>
		</linearGradient>
		<linearGradient id="g37" x1="349.9" y1="402.7" x2="349.9" y2="348.9" gradientUnits="userSpaceOnUse">
			<stop offset="0" stop-color="#ccedff"/>
			<stop offset="1" stop-color="#755cbb"/>
		</linearGradient>
		<linearGradient id="g38" x1="420" y1="323.6" x2="442" y2="323.6" gradientUnits="userSpaceOnUse">
			<stop offset="0" stop-color="#ccedff"/>
			<stop offset="1" stop-color="#755cbb"/>
		</linearGradient>
		<linearGradient id="g39" x1="647.5" y1="487.7" x2="647.5" y2="386.6" gradientUnits="userSpaceOnUse">
			<stop offset="0" stop-color="#ccccff"/>
			<stop offset="1" stop-color="#755cbb"/>
		</linearGradient>
		<linearGradient id="g40" x1="760" y1="466" x2="760" y2="413.2" gradientUnits="userSpaceOnUse">
			<stop offset="0" stop-color="#ccccff"/>
			<stop offset="1" stop-color="#755cbb"/>
		</linearGradient>
		<linearGradient id="g41" x1="688.5" y1="463.6" x2="688.5" y2="423.2" gradientUnits="userSpaceOnUse">
			<stop offset="0" stop-color="#ccccff"/>
			<stop offset="1" stop-color="#755cbb"/>
		</linearGradient>
		<linearGradient id="g42" x1="347.4" y1="404.2" x2="347.4" y2="391.9" gradientUnits="userSpaceOnUse">
			<stop offset="0" stop-color="#ccedff"/>
			<stop offset="1" stop-color="#755cbb"/>
		</linearGradient>
		<linearGradient id="g43" x1="387.5" y1="452.7" x2="387.5" y2="370.7" gradientUnits="userSpaceOnUse">
			<stop offset="0" stop-color="#ccccff"/>
			<stop offset="1" stop-color="#755cbb"/>
		</linearGradient>
		<linearGradient id="g44" x1="589.9" y1="395" x2="589.9" y2="333.3" gradientUnits="userSpaceOnUse">
			<stop offset="0" stop-color="#ccedff"/>
			<stop offset="1" stop-color="#755cbb"/>
		</linearGradient>
		<linearGradient id="g45" x1="498.3" y1="386.6" x2="498.3" y2="301.5" gradientUnits="userSpaceOnUse">
			<stop offset="0" stop-color="#ccedff"/>
			<stop offset="1" stop-color="#755cbb"/>
		</linearGradient>
		<linearGradient id="g46" x1="518.1" y1="274.6" x2="610.6" y2="274.6" gradientUnits="userSpaceOnUse">
			<stop offset="0" stop-color="#ccccff"/>
			<stop offset="1" stop-color="#755cbb"/>
		</linearGradient>
		<linearGradient id="g47" x1="744.3" y1="460" x2="744.3" y2="406.4" gradientUnits="userSpaceOnUse">
			<stop offset="0" stop-color="#ccccff"/>
			<stop offset="1" stop-color="#755cbb"/>
		</linearGradient>
		<linearGradient id="g48" x1="647.5" y1="520.4" x2="647.5" y2="358.2" gradientUnits="userSpaceOnUse">
			<stop offset="0" stop-color="#ccccff"/>
			<stop offset="1" stop-color="#755cbb"/>
		</linearGradient>
		<linearGradient id="g49" x1="465.6" y1="596.5" x2="465.6" y2="550" gradientUnits="userSpaceOnUse">
			<stop offset="0" stop-color="#ccccff"/>
			<stop offset="1" stop-color="#755cbb"/>
		</linearGradient>
		<linearGradient id="g50" x1="551.3" y1="580.1" x2="551.3" y2="561.2" gradientUnits="userSpaceOnUse">
			<stop offset="0" stop-color="#ccccff"/>
			<stop offset="1" stop-color="#755cbb"/>
		</linearGradient>
		<linearGradient id="g51" x1="538.5" y1="290.6" x2="538.5" y2="143.8" gradientUnits="userSpaceOnUse">
			<stop offset="0" stop-color="#ffc2a9"/>
			<stop offset="1" stop-color="#ff9595"/>
		</linearGradient>
		<linearGradient id="g52" x1="520.8" y1="230.1" x2="520.8" y2="185.8" gradientUnits="userSpaceOnUse">
			<stop offset="0" stop-color="#ffc2a9"/>
			<stop offset="1" stop-color="#ff9595"/>
		</linearGradient>
		<linearGradient id="g53" x1="592.3" y1="243.1" x2="594" y2="234.2" gradientUnits="userSpaceOnUse">
			<stop offset="0" stop-color="#e1616a"/>
			<stop offset="1" stop-color="#ff8883"/>
		</linearGradient>
		<linearGradient id="g54" x1="546.9" y1="240.9" x2="546.9" y2="141.5" gradientUnits="userSpaceOnUse">
			<stop offset="0" stop-color="#ffeadb"/>
			<stop offset="1" stop-color="#c27cb6"/>
		</linearGradient>
		<linearGradient id="g55" x1="579.5" y1="200.2" x2="579.5" y2="180.5" gradientUnits="userSpaceOnUse">
			<stop offset="0" stop-color="#cf6074"/>
			<stop offset="1" stop-color="#f37270"/>
		</linearGradient>
		<linearGradient id="g56" x1="623.6" y1="206.4" x2="623.6" y2="189.3" gradientUnits="userSpaceOnUse">
			<stop offset="0" stop-color="#cf6074"/>
			<stop offset="1" stop-color="#ff817f"/>
		</linearGradient>
		<linearGradient id="g57" x1="623.5" y1="216.4" x2="623.5" y2="178.1" gradientUnits="userSpaceOnUse">
			<stop offset="0" stop-color="#ffeadb"/>
			<stop offset="1" stop-color="#c27cb6"/>
		</linearGradient>
		<linearGradient id="g58" x1="536" y1="292.3" x2="536" y2="108.3" gradientUnits="userSpaceOnUse">
			<stop offset="0" stop-color="#2e33a0"/>
			<stop offset="1" stop-color="#0665a5"/>
		</linearGradient>
		<linearGradient id="g59" x1="634.5" y1="177.6" x2="634.5" y2="134.4" gradientUnits="userSpaceOnUse">
			<stop offset="0" stop-color="#ffeadb"/>
			<stop offset="1" stop-color="#8860c7"/>
		</linearGradient>
		<linearGradient id="g60" x1="535.9" y1="292.3" x2="535.9" y2="108.3" gradientUnits="userSpaceOnUse">
			<stop offset="0" stop-color="#ccc2db"/>
			<stop offset="1" stop-color="#8860c7"/>
		</linearGradient>
		<linearGradient id="g61" x1="574.6" y1="293.3" x2="574.6" y2="287.8" gradientUnits="userSpaceOnUse">
			<stop offset="0" stop-color="#776d7e"/>
			<stop offset="1" stop-color="#9d68c2"/>
		</linearGradient>
		<linearGradient id="g62" x1="603.4" y1="121.7" x2="603.4" y2="116.1" gradientUnits="userSpaceOnUse">
			<stop offset="0" stop-color="#1f77d1"/>
			<stop offset="1" stop-color="#0686c9"/>
		</linearGradient>
		<linearGradient id="g63" x1="556.9" y1="141.4" x2="556.9" y2="124.9" gradientUnits="userSpaceOnUse">
			<stop offset="0" stop-color="#1f77d1"/>
			<stop offset="1" stop-color="#0686c9"/>
		</linearGradient>
		<linearGradient id="g64" x1="640.9" y1="150.4" x2="640.9" y2="134.4" gradientUnits="userSpaceOnUse">
			<stop offset="0" stop-color="#1f77d1"/>
			<stop offset="1" stop-color="#0686c9"/>
		</linearGradient>
		<linearGradient id="g65" x1="531.5" y1="231.3" x2="511.1" y2="206.3" gradientUnits="userSpaceOnUse">
			<stop offset="0" stop-color="#ffeadb"/>
			<stop offset="1" stop-color="#b060f4"/>
		</linearGradient>
		<linearGradient id="g66" x1="535.9" y1="225" x2="526.5" y2="213.4" gradientUnits="userSpaceOnUse">
			<stop offset="0" stop-color="#ffeadb"/>
			<stop offset="1" stop-color="#b060f4"/>
		</linearGradient>
		<linearGradient id="g67" x1="584.5" y1="136.3" x2="619" y2="136.3" gradientUnits="userSpaceOnUse">
			<stop offset="0" stop-color="#1f77d1"/>
			<stop offset="1" stop-color="#0686c9"/>
		</linearGradient>
		<linearGradient id="g68" x1="633.2" y1="232.6" x2="643.7" y2="232.6" gradientUnits="userSpaceOnUse">
			<stop offset="0" stop-color="#1f77d1"/>
			<stop offset="1" stop-color="#0686c9"/>
		</linearGradient>
		<linearGradient id="g69" x1="620.3" y1="231.1" x2="631.6" y2="231.1" gradientUnits="userSpaceOnUse">
			<stop offset="0" stop-color="#1f77d1"/>
			<stop offset="1" stop-color="#0686c9"/>
		</linearGradient>
		<linearGradient id="g70" x1="703.7" y1="249.2" x2="1057.2" y2="249.2" gradientUnits="userSpaceOnUse">
			<stop offset="0" stop-color="#9d68c2"/>
			<stop offset="1" stop-color="#aec2ff"/>
		</linearGradient>
		<linearGradient id="g71" x1="717.6" y1="399.6" x2="717.6" y2="292.8" gradientUnits="userSpaceOnUse">
			<stop offset="0" stop-color="#ccedff"/>
			<stop offset="1" stop-color="#9d68c2"/>
		</linearGradient>
		<linearGradient id="g72" x1="930.2" y1="347.6" x2="930.2" y2="300.5" gradientUnits="userSpaceOnUse">
			<stop offset="0" stop-color="#ccedff"/>
			<stop offset="1" stop-color="#9d68c2"/>
		</linearGradient>
		<linearGradient id="g73" x1="985.7" y1="347.6" x2="985.7" y2="300.5" gradientUnits="userSpaceOnUse">
			<stop offset="0" stop-color="#ccedff"/>
			<stop offset="1" stop-color="#9d68c2"/>
		</linearGradient>
		<linearGradient id="g74" x1="873.8" y1="347.6" x2="873.8" y2="300.5" gradientUnits="userSpaceOnUse">
			<stop offset="0" stop-color="#ccedff"/>
			<stop offset="1" stop-color="#9d68c2"/>
		</linearGradient>
		<linearGradient id="g75" x1="362.7" y1="232" x2="362.7" y2="182.7" gradientUnits="userSpaceOnUse">
			<stop offset="0" stop-color="#d93de3"/>
			<stop offset="1" stop-color="#ff6dba"/>
		</linearGradient>
		<linearGradient id="g76" x1="419.2" y1="232" x2="419.2" y2="182.7" gradientUnits="userSpaceOnUse">
			<stop offset="0" stop-color="#a242ea"/>
			<stop offset="1" stop-color="#fe117e"/>
		</linearGradient>
		<linearGradient id="g77" x1="259.4" y1="734.7" x2="286.1" y2="522.7" gradientUnits="userSpaceOnUse">
			<stop offset="0" stop-color="#067eff"/>
			<stop offset="1" stop-color="#3e37a0"/>
		</linearGradient>
		<linearGradient id="g78" x1="995.6" y1="226.6" x2="995.6" y2="208.7" gradientUnits="userSpaceOnUse">
			<stop offset="0" stop-color="#459fff"/>
			<stop offset="1" stop-color="#a96dff"/>
		</linearGradient>
		<linearGradient id="g79" x1="153.4" y1="436.1" x2="153.4" y2="413.8" gradientUnits="userSpaceOnUse">
			<stop offset="0" stop-color="#459fff"/>
			<stop offset="1" stop-color="#a96dff"/>
		</linearGradient>
		<linearGradient id="g80" x1="1021.8" y1="226.6" x2="1021.8" y2="208.7" gradientUnits="userSpaceOnUse">
			<stop offset="0" stop-color="#b31a8f"/>
			<stop offset="1" stop-color="#fe117e"/>
		</linearGradient>
		<linearGradient id="g81" x1="448.1" y1="285.5" x2="448.1" y2="272.8" gradientUnits="userSpaceOnUse">
			<stop offset="0" stop-color="#b31a8f"/>
			<stop offset="1" stop-color="#fe117e"/>
		</linearGradient>
		<linearGradient id="g82" x1="871.4" y1="564.3" x2="871.4" y2="551.7" gradientUnits="userSpaceOnUse">
			<stop offset="0" stop-color="#8642a0"/>
			<stop offset="1" stop-color="#6456c0"/>
		</linearGradient>
		<linearGradient id="g83" x1="215" y1="626.7" x2="215" y2="615.4" gradientUnits="userSpaceOnUse">
			<stop offset="0" stop-color="#8642a0"/>
			<stop offset="1" stop-color="#6456c0"/>
		</linearGradient>
		<linearGradient id="g84" x1="202.7" y1="565.5" x2="202.7" y2="472.2" gradientUnits="userSpaceOnUse">
			<stop offset="0" stop-color="#d906e3"/>
			<stop offset="1" stop-color="#ff6df9"/>
		</linearGradient>
		<linearGradient id="g85" x1="830.6" y1="697.6" x2="830.6" y2="580.9" gradientUnits="userSpaceOnUse">
			<stop offset="0" stop-color="#d906e3"/>
			<stop offset="1" stop-color="#ff6df9"/>
		</linearGradient>
		<linearGradient id="g86" x1="771.3" y1="631.9" x2="771.3" y2="547.7" gradientUnits="userSpaceOnUse">
			<stop offset="0" stop-color="#1852a0"/>
			<stop offset="1" stop-color="#067ed3"/>
		</linearGradient>
		<linearGradient id="g87" x1="764.9" y1="631.9" x2="764.9" y2="542.2" gradientUnits="userSpaceOnUse">
			<stop offset="0" stop-color="#1852a0"/>
			<stop offset="1" stop-color="#067ed3"/>
		</linearGradient>
		<linearGradient id="g88" x1="756.2" y1="627" x2="756.2" y2="542.2" gradientUnits="userSpaceOnUse">
			<stop offset="0" stop-color="#188dc1"/>
			<stop offset="1" stop-color="#06bfe7"/>
		</linearGradient>
		<linearGradient id="g89" x1="773" y1="162.3" x2="795.7" y2="78.1" gradientUnits="userSpaceOnUse">
			<stop offset="0" stop-color="#188dc1"/>
			<stop offset="1" stop-color="#06bfe7"/>
		</linearGradient>
		<linearGradient id="g90" x1="771.4" y1="162.6" x2="788.3" y2="99.8" gradientUnits="userSpaceOnUse">
			<stop offset="0" stop-color="#1852a0"/>
			<stop offset="1" stop-color="#067ed3"/>
		</linearGradient>
		<linearGradient id="g91" x1="205.9" y1="311.3" x2="190.5" y2="253.9" gradientUnits="userSpaceOnUse">
			<stop offset="0" stop-color="#188dc1"/>
			<stop offset="1" stop-color="#06bfe7"/>
		</linearGradient>
		<linearGradient id="g92" x1="207.1" y1="311.5" x2="195.5" y2="268.8" gradientUnits="userSpaceOnUse">
			<stop offset="0" stop-color="#1852a0"/>
			<stop offset="1" stop-color="#067ed3"/>
		</linearGradient>
	</defs>
	<style>
		.s0 { fill: #f1f1f4 } 
		.s1 { fill: #e0f3ff } 
		.s2 { fill: url(#g1) } 
		.s3 { fill: url(#g2) } 
		.s4 { fill: #e5e2ff } 
		.s5 { fill: url(#g3) } 
		.s6 { opacity: .6;mix-blend-mode: multiply;fill: url(#g4) } 
		.s7 { opacity: .6;mix-blend-mode: multiply;fill: url(#g5) } 
		.s8 { opacity: .5;mix-blend-mode: screen;fill: url(#g6) } 
		.s9 { fill: #ffffff } 
		.s10 { fill: url(#g7) } 
		.s11 { opacity: .5;mix-blend-mode: screen;fill: url(#g8) } 
		.s12 { opacity: .5;mix-blend-mode: screen;fill: url(#g9) } 
		.s13 { fill: url(#g10) } 
		.s14 { fill: url(#g11) } 
		.s15 { opacity: .8;mix-blend-mode: multiply;fill: url(#g12) } 
		.s16 { opacity: .8;mix-blend-mode: multiply;fill: url(#g13) } 
		.s17 { opacity: .8;mix-blend-mode: multiply;fill: url(#g14) } 
		.s18 { fill: #fe9083 } 
		.s19 { fill: url(#g15) } 
		.s20 { opacity: .5;mix-blend-mode: multiply;fill: url(#g16) } 
		.s21 { fill: url(#g17) } 
		.s22 { opacity: .5;mix-blend-mode: multiply;fill: url(#g18) } 
		.s23 { fill: url(#g19) } 
		.s24 { fill: url(#g20) } 
		.s25 { fill: #cb4d7a } 
		.s26 { fill: #ee8183 } 
		.s27 { fill: url(#g21) } 
		.s28 { opacity: .6;mix-blend-mode: multiply;fill: url(#g22) } 
		.s29 { fill: url(#g23) } 
		.s30 { fill: #e28183 } 
		.s31 { opacity: .9;mix-blend-mode: multiply;fill: url(#g24) } 
		.s32 { fill: url(#g25) } 
		.s33 { opacity: .6;mix-blend-mode: multiply;fill: url(#g26) } 
		.s34 { fill: url(#g27) } 
		.s35 { fill: url(#g28) } 
		.s36 { opacity: .9;mix-blend-mode: multiply;fill: url(#g29) } 
		.s37 { opacity: .5;mix-blend-mode: multiply;fill: url(#g30) } 
		.s38 { opacity: .5;mix-blend-mode: multiply;fill: url(#g31) } 
		.s39 { opacity: .5;mix-blend-mode: multiply;fill: url(#g32) } 
		.s40 { opacity: .5;mix-blend-mode: multiply;fill: url(#g33) } 
		.s41 { opacity: .5;mix-blend-mode: multiply;fill: url(#g34) } 
		.s42 { opacity: .5;mix-blend-mode: multiply;fill: url(#g35) } 
		.s43 { opacity: .5;mix-blend-mode: multiply;fill: url(#g36) } 
		.s44 { opacity: .5;mix-blend-mode: multiply;fill: url(#g37) } 
		.s45 { opacity: .5;mix-blend-mode: multiply;fill: url(#g38) } 
		.s46 { opacity: .8;mix-blend-mode: multiply;fill: url(#g39) } 
		.s47 { opacity: .5;mix-blend-mode: multiply;fill: url(#g40) } 
		.s48 { opacity: .3;mix-blend-mode: multiply;fill: url(#g41) } 
		.s49 { opacity: .5;mix-blend-mode: multiply;fill: url(#g42) } 
		.s50 { opacity: .5;mix-blend-mode: multiply;fill: url(#g43) } 
		.s51 { opacity: .5;mix-blend-mode: multiply;fill: url(#g44) } 
		.s52 { opacity: .5;mix-blend-mode: multiply;fill: url(#g45) } 
		.s53 { opacity: .5;mix-blend-mode: multiply;fill: url(#g46) } 
		.s54 { opacity: .3;mix-blend-mode: multiply;fill: url(#g47) } 
		.s55 { opacity: .5;mix-blend-mode: multiply;fill: url(#g48) } 
		.s56 { opacity: .5;mix-blend-mode: multiply;fill: url(#g49) } 
		.s57 { opacity: .5;mix-blend-mode: multiply;fill: url(#g50) } 
		.s58 { opacity: .5;mix-blend-mode: multiply;fill: #7a4ac0 } 
		.s59 { fill: url(#g51) } 
		.s60 { fill: url(#g52) } 
		.s61 { fill: url(#g53) } 
		.s62 { opacity: .6;mix-blend-mode: multiply;fill: url(#g54) } 
		.s63 { fill: #38368e } 
		.s64 { fill: url(#g55) } 
		.s65 { fill: url(#g56) } 
		.s66 { fill: #ffebed } 
		.s67 { fill: #7f9ec9 } 
		.s68 { fill: #131163 } 
		.s69 { fill: #c6659c } 
		.s70 { fill: #cb5f7d } 
		.s71 { fill: #9f4a8b } 
		.s72 { fill: #ffbcaf } 
		.s73 { opacity: .6;mix-blend-mode: multiply;fill: url(#g57) } 
		.s74 { fill: url(#g58) } 
		.s75 { fill: #d2726c } 
		.s76 { opacity: .6;mix-blend-mode: multiply;fill: url(#g59) } 
		.s77 { opacity: .6;mix-blend-mode: multiply;fill: url(#g60) } 
		.s78 { opacity: .5;mix-blend-mode: multiply;fill: url(#g61) } 
		.s79 { fill: url(#g62) } 
		.s80 { fill: url(#g63) } 
		.s81 { fill: url(#g64) } 
		.s82 { opacity: .8;mix-blend-mode: multiply;fill: url(#g65) } 
		.s83 { opacity: .8;mix-blend-mode: multiply;fill: url(#g66) } 
		.s84 { fill: #34c7ff } 
		.s85 { fill: url(#g67) } 
		.s86 { fill: url(#g68) } 
		.s87 { fill: url(#g69) } 
		.s88 { opacity: .6;fill: #36d1f7 } 
		.s89 { fill: #744ca2 } 
		.s90 { opacity: .6;mix-blend-mode: multiply;fill: url(#g70) } 
		.s91 { opacity: .3;mix-blend-mode: multiply;fill: url(#g71) } 
		.s92 { opacity: .3;mix-blend-mode: multiply;fill: url(#g72) } 
		.s93 { opacity: .3;mix-blend-mode: multiply;fill: url(#g73) } 
		.s94 { opacity: .3;mix-blend-mode: multiply;fill: url(#g74) } 
		.s95 { mix-blend-mode: multiply;fill: #d1d4fb } 
		.s96 { fill: #e0ffff } 
		.s97 { fill: url(#g75) } 
		.s98 { fill: url(#g76) } 
		.s99 { opacity: .8;fill: url(#g77) } 
		.s100 { fill: #473da2 } 
		.s101 { fill: url(#g78) } 
		.s102 { fill: url(#g79) } 
		.s103 { fill: url(#g80) } 
		.s104 { fill: url(#g81) } 
		.s105 { fill: url(#g82) } 
		.s106 { fill: url(#g83) } 
		.s107 { opacity: .7;fill: url(#g84) } 
		.s108 { fill: #953da2 } 
		.s109 { opacity: .7;fill: url(#g85) } 
		.s110 { fill: url(#g86) } 
		.s111 { fill: url(#g87) } 
		.s112 { fill: url(#g88) } 
		.s113 { opacity: .5;mix-blend-mode: multiply;fill: #601734 } 
		.s114 { mix-blend-mode: soft-light;fill: #b3d9ff } 
		.s115 { fill: #ff1d9c } 
		.s116 { fill: #6877ff } 
		.s117 { fill: #4f31e0 } 
		.s118 { fill: url(#g89) } 
		.s119 { fill: url(#g90) } 
		.s120 { fill: url(#g91) } 
		.s121 { fill: url(#g92) } 
	</style>
	<g id="illustration">
		<g id="&lt;Clip Group&gt;">
			<g id="&lt;Group&gt;">
				<path id="&lt;Compound Path&gt;" fill-rule="evenodd" class="s0" d="m296.4 392.2q0-0.7 0.7-0.7l13.4 0.4q2 0 3.4 0.6 1.4 0.5 2.2 1.5 0.9 0.9 1.2 2.3 0.4 1.3 0.3 2.9l-0.1 3.7q0 1.6-0.5 2.9-0.4 1.3-1.3 2.2-0.9 0.9-2.3 1.4-1.4 0.4-3.4 0.4l-7.2-0.2-1.5-4.3h-0.2l-0.1 4.2-5.1-0.2zm4.7 12.7l8.6 0.3q1.4 0 2-0.6 0.7-0.6 0.7-2.3l0.1-3q0.1-1.6-0.5-2.2-0.6-0.7-2.1-0.7l-8.2-0.3q-0.2 0-0.3 0.1-0.1 0.2-0.1 0.3z"/>
				<path id="&lt;Compound Path&gt;" class="s0" d="m324.9 399.9h-0.2l-0.1 5.3q-0.1 0.4 0.3 0.4l15.1 0.4-0.2 4.7-19.7-0.6q-0.8 0-0.7-0.8l0.5-16.4q0-0.7 0.7-0.7l19.2 0.6q0.7 0 0.7 0.7l-0.1 4.7-4.8 1.6h-0.2l0.1-2.4q0-0.3-0.2-0.3l-10.2-0.3q-0.2 0-0.2 0.1-0.1 0.1-0.1 0.2l-0.1 2.3 8.4 0.2-0.1 3.7-7-0.2z"/>
				<path id="&lt;Compound Path&gt;" class="s0" d="m358.4 399.5h-0.2l0.1-1.9q0-0.3-0.3-0.3l-9.4-0.3q-0.6 0-0.8 0.2-0.2 0.2-0.2 0.6v0.4q0 0.6 0.2 0.7 0.1 0.2 0.6 0.3l11.1 1.8q1 0.2 1.8 0.6 0.7 0.3 1.1 0.8 0.5 0.5 0.7 1.3 0.1 0.7 0.1 1.7v1.4q-0.1 1.1-0.4 2-0.3 0.8-0.9 1.4-0.6 0.5-1.6 0.8-1.1 0.3-2.5 0.2l-15.9-0.5 0.1-4.6 14.3 0.4q0.6 0 0.8-0.2 0.2-0.2 0.3-0.8v-0.5q0-0.5-0.2-0.6-0.1-0.2-0.6-0.3l-10.7-1.7q-1-0.2-1.8-0.5-0.8-0.3-1.2-0.8-0.5-0.5-0.7-1.2-0.2-0.7-0.2-1.7v-1.3q0.1-1.9 1.2-3 1-1 3.4-0.9l15.9 0.5q0.8 0 0.8 0.8l-0.1 3.7z"/>
				<path id="&lt;Compound Path&gt;" class="s0" d="m365.1 411.4l0.6-17.8 5 0.1-0.5 17.9z"/>
				<path id="&lt;Compound Path&gt;" class="s0" d="m389 404.5q0-0.4 0-0.8 0-0.5-0.1-0.8v-0.2l5 0.1-0.2 8.8q-0.1 0.7-0.7 0.7l-13.4-0.4q-2-0.1-3.4-0.6-1.4-0.6-2.2-1.5-0.9-1-1.2-2.3-0.4-1.3-0.3-2.9l0.1-3.7q0-1.6 0.5-3 0.4-1.3 1.3-2.1 0.9-0.9 2.3-1.4 1.4-0.5 3.4-0.4l13.4 0.4q0.7 0 0.7 0.8l-0.1 3.8-4.8 1.6h-0.2l0.1-1.7q0-0.3-0.2-0.3l-8.6-0.2q-0.7-0.1-1.2 0.1-0.5 0.1-0.9 0.4-0.3 0.3-0.5 0.9-0.1 0.5-0.1 1.3l-0.1 3.2q-0.1 1.6 0.5 2.3 0.6 0.6 2 0.7l8.5 0.2q0.3 0 0.3-0.3z"/>
				<path id="&lt;Compound Path&gt;" class="s0" d="m404.6 394.7q0.6 0.1 0.8 0.2 0.3 0.2 0.4 0.6l6.4 13q0.2 0.3 0.5 0.4h0.3q0.3 0 0.4-0.4l0.4-13.5 4.6 0.2-0.6 17.1q0 0.7-0.7 0.7l-7.2-0.2q-0.6 0-0.8-0.2-0.3-0.1-0.5-0.5l-6.6-13.1q-0.1-0.3-0.5-0.3h-0.2q-0.4 0-0.4 0.4l-0.4 13.4-4.6-0.1 0.5-17.2q0-0.7 0.7-0.7z"/>
			</g>
			<path id="&lt;Path&gt;" class="s1" d="m848.1 391.1c0 171.2-138.8 310-310 310-171.2 0-310-138.8-310-310 0-171.3 138.8-310.1 310-310.1 171.2 0 310 138.8 310 310.1z"/>
			<g id="&lt;Group&gt;">
				<path id="&lt;Compound Path&gt;" fill-rule="evenodd" class="s2" d="m312.5 376.3c0.5 3-0.8 8.3-7.1 14.9l26.6 64.5c5.2 0.9 10 4.3 12.4 9.5 4 8.5 0.3 18.6-8.1 22.6-8.5 3.9-18.6 0.3-22.6-8.2-2.4-5.2-1.9-11 0.7-15.7l-32.4-61.8c-9.4 0.6-14.2-1.9-16.1-4.1-0.3-0.4-2.3-5-2.3-5-5.2-14.3-0.7-28.1-0.7-28.1l4.7-2.2 7.9 20.4c6.6 3.7 13 2.4 13 2.4 0 0 5.1-4 6.5-11.4l-10.6-19.2 4.7-2.2c0 0 13.5 5.4 21.1 18.5 0 0 2.2 4.4 2.3 5.1zm25.2 92.1l-7.8-5.4-8.6 4-0.8 9.4 7.8 5.4 8.5-4z"/>
				<path id="&lt;Compound Path&gt;" fill-rule="evenodd" class="s3" d="m307.7 396.3l26.6 64.5c5.3 0.9 10.1 4.3 12.5 9.5 4 8.5 0.3 18.5-8.2 22.5-8.5 4-18.6 0.3-22.5-8.2-2.5-5.2-2-11 0.7-15.6l-32.4-61.9c-11.1 0.7-18.5-9.1-18.5-9.1-5.1-14.3-0.6-28.1-0.6-28.1l4.7-2.2 7.9 20.5c6.6 3.6 12.9 2.3 12.9 2.3v0.1c0 0 5.1-4.1 6.5-11.5l-10.6-19.2 4.7-2.2c0 0 13.5 5.4 21.1 18.6 0 0 2.9 11.9-4.8 20zm32.3 77.1l-7.7-5.4-8.6 4-0.8 9.5 7.7 5.4 8.6-4z"/>
				<path id="&lt;Path&gt;" class="s4" d="m267.6 362.7l2.4 5-4.7 2.2-2.4-5z"/>
				<path id="&lt;Path&gt;" class="s4" d="m289.1 352.7l2.3 5-4.7 2.2-2.3-5z"/>
				<path id="&lt;Path&gt;" class="s4" d="m336.8 477.8l2.4 5.1-8.6 4-2.3-5.1z"/>
				<g id="&lt;Group&gt;">
					<path id="&lt;Compound Path&gt;" fill-rule="evenodd" class="s5" d="m306.8 404.5l21.3 52.6c0 0-3.7 5.2-10.6 4.9l-26.2-50.3c0 0 5.9-7.5 15.5-7.2zm-1.2 1q-3.3 0.4-6.5 1.9c-2.8 1.3-5 3-6.3 4.1l26.2 49.3q1.9-0.3 3.7-1.1c1.4-0.7 2.6-1.5 3.3-2.2z"/>
					<path id="&lt;Path&gt;" class="s4" d="m326 457.5l2.1-0.4c0 0-3 5.3-10.6 4.9l1.5-1.2c0 0 3.8-0.4 7-3.3z"/>
					<path id="&lt;Path&gt;" class="s6" d="m298.2 406.4c5.2-2.5 8.6-1.9 8.6-1.9l-1.2 1c-8.3 1.4-12.8 6-12.8 6l-1.5 0.2c0 0 1.7-2.9 6.9-5.3z"/>
				</g>
				<path id="&lt;Path&gt;" class="s7" d="m284.4 407.1c0 0 12.6-2.2 23.3-10.8l3.4 8.2c0 0-3.9-3.8-12.3-0.3-9.9 4-9.4 12-9.4 12z"/>
				<path id="&lt;Path&gt;" class="s8" d="m334.3 460.8l-3 3.1-25.4-61.2c0 0 2.8 0.1 5.2 1.8z"/>
				<path id="&lt;Path&gt;" class="s9" d="m311.1 404.5c0 0-2.6 8.2 5 12.1z"/>
			</g>
			<g id="&lt;Group&gt;">
				<g id="&lt;Group&gt;">
					<path id="&lt;Path&gt;" class="s10" d="m692.5 800h-94c-9.9-54.6-32.8-125.7-32.8-125.7-5.5-3.3-16.4 0.7-16.4 0.7l-34.3 125h-85.9c-4.6-77.1 37.6-164.7 37.6-164.7-0.1-0.3-1.5-3-1.1-4.8 0.1-0.7 1.6-2.2 3.2-3.7 2.3-2.1 5.1-4.2 5.1-4.2l160.2-1c0 0 1.6 0.8 3.7 2 3.5 2.2 8.2 5.4 8.2 7.8 0 3.3-1.3 5.5-1.6 6l-0.1 0.1c34.4 64.8 48.2 162.5 48.2 162.5z"/>
					<path id="&lt;Path&gt;" class="s11" d="m508.7 743.9c-11.5 49.8-36.5 86.6-55.8 82.2-19.3-4.5-25.6-48.5-14.1-98.3 11.5-49.9 36.4-86.7 55.7-82.2 19.3 4.4 25.6 48.4 14.2 98.3z"/>
					<path id="&lt;Path&gt;" class="s12" d="m674.6 725.3c13.8 49.2 9.6 93.5-9.5 98.8-19.1 5.4-45.7-30.2-59.5-79.5-13.8-49.2-9.5-93.5 9.5-98.9 19.1-5.3 45.7 30.3 59.5 79.6z"/>
					<g id="&lt;Group&gt;">
						<path id="&lt;Path&gt;" class="s13" d="m503.8 800.1l-0.9-0.2c10.9-64.4 38.6-118.4 38.9-118.9l0.1-0.2 7.1-6.2 0.6 0.8-6.9 6.1c-1.3 2.4-28.2 55.5-38.9 118.6z"/>
					</g>
					<g id="&lt;Group&gt;">
						<path id="&lt;Path&gt;" class="s14" d="m611.2 800.1c-10.7-63.1-38.3-116.7-39.5-119.1l-6.3-5.6 0.7-0.8 6.4 5.9c0.3 0.5 28.8 55 39.7 119.4z"/>
					</g>
					<path id="&lt;Path&gt;" class="s15" d="m646 631.4c0 3.3-1.3 5.5-1.6 6l-0.1 0.1c-33.3 7.5-58.7 38.6-58.7 38.6 18.2 34.9 48.5 123.9 48.5 123.9h-35.6c-9.9-54.6-32.8-125.7-32.8-125.7-5.5-3.3-16.4 0.7-16.4 0.7l-34.3 125h-22.3c8-52.4 31.5-116.3 31.5-116.3-23.1-26.9-57.5-48.4-57.5-48.4l-4.1-2.5 3-2.3c14.8 14.3 62.8 32.9 64.2 33.5l-61-37.2c2.3-2.1 5.1-4.2 5.1-4.2l160.2-1c0 0 1.6 0.8 3.7 2l-43.8 24.1z"/>
					<path id="&lt;Path&gt;" class="s16" d="m565.7 674.3l18.7-12.2-4.4 12.2-3.3 36.5z"/>
					<path id="&lt;Path&gt;" class="s17" d="m544.4 692.9l-3.2-12.6-53.1-35.1 41.7 18.8 19.5 11z"/>
				</g>
				<path id="&lt;Path&gt;" class="s18" d="m602.9 299.3c0.1 0.9 0.2 1.3 0.2 1.3q-1.4 6.1-3.3 11.3c-3.9 11.3-8.8 19.3-12.4 24.3-3.2 4.3-5.5 6.3-5.5 6.3-29.2-9.1-43.5-37.7-49.1-51.9q0-0.1 0-0.2c-1.1-2.7-1.8-4.8-2.2-6.2q0 0 0 0c-0.4-1.2-0.5-1.8-0.5-1.8q0.1-0.4 0.3-0.7l0.1-0.1c0.5-1 0.9-2 1.4-3 3.8-8.4 6.3-16.2 8-22.4 1.4-5.2 2.2-9.2 2.5-11.4 0.2-1.1 0.3-1.7 0.3-1.7l13.6 7.2 46.8 24.8c-0.7 4.3-0.9 8.3-1 11.9 0 2.5 0.1 4.7 0.2 6.6 0.2 2.3 0.4 4.2 0.6 5.4 0 0.1 0 0.2 0 0.3z"/>
				<path id="&lt;Path&gt;" class="s19" d="m589.9 345.7c-2.7 2.7-5.9 5.1-9.7 7.1q-0.1 0-0.2 0.1 0 0-0.3-0.2c-1-0.6-4.5-2.7-9.2-6.3-12.2-9.2-32.7-27.8-38.5-52.9q0-0.1 0-0.1c-0.7-3-1.2-6.1-1.4-9.2q0 0 0 0-0.1-1.3-0.2-2.5c0 0 4.1 9.5 11.1 19.8 8.3 12.1 20.7 25.4 35.6 25.4 12.8 0.1 19.4-8.7 22.7-16.8 1.4-3.4 2.3-6.7 2.7-9.2q0 0 0 0 0.2-1.1 0.4-1.9 0-0.4 0.1-0.8c0.1-0.9 0.1-1.4 0.1-1.4 0 0 5 30.7-13.2 48.9z"/>
				<path id="&lt;Path&gt;" class="s20" d="m589.9 345.7c-2.7 2.7-5.9 5.1-9.7 7.1h-0.2l-0.3-0.1c-1-0.6-4.5-2.7-9.2-6.3-12.2-9.2-32.7-27.8-38.5-52.9q0-0.1 0-0.1c-0.7-3-1.2-6.1-1.4-9.2q0 0 0 0-0.1-1.3-0.2-2.5c0 0 4.1 9.5 11.1 19.8 0 0 8.1 22.2 25.6 33.2 8.7 5.5 15.4 4.7 20.3 1.5 4.8-3.2 8-8.9 9.9-13.1 1.8-4.3 2.4-8.2 2.5-11.2q0-1 0-1.8c1.4-3.4 2.3-6.7 2.7-9.2q0 0 0 0 0.2-1.1 0.4-1.9 0-0.4 0.1-0.8c0.1-0.9 0.1-1.4 0.1-1.4 0 0 5 30.7-13.2 48.9z"/>
				<path id="&lt;Path&gt;" class="s21" d="m702.2 527.1q-0.3 0.1-0.3 0.1c-1.6 0.2-6.7-0.9-13.4-6.7q0 0-0.1-0.1 0 0-0.1 0c-5.6-4.9-12.3-13.1-19-26.5-13.4-26.8-17.2-44.7-17.8-47.8l-0.1-0.5-7.8 12.4c-5.3 16-15.4 81.9-15.2 84.8 0.2 2.8 8.9 16.6 8.7 18.3q0 0 0 0.1c-0.2 1.7-4.2 5.5-5.3 9.6-0.7 2.7 4.6 11.4 8.3 17.8v0.1c2 3.3 3.5 6.1 3.5 7.1 0 3-9.5 17.8-9.5 17.8v8l-0.2 0.1-0.4 0.4-0.4 0.3c-3.6 2.9-18.8 12.2-66.5 14.7-56.5 3-94.1-15.1-94.1-15.1l2.8-7.8c0 0-2.6-2.3-2.8-3.4-0.2-1.2 2-3.8 2-3.8 0 0-5.6-3-5.6-6.8 0-3.8 11.3-15.6 11-25.6-0.4-10.1-9.1-19-10.3-24.6-1.1-5.7 14.8-19.7 14.8-19.7-13.6-43.2-16.3-101.2-16.3-101.2l-2.6-3.1c0 0-16.3 37.2-31.1 55.4-1.8 2.1-3.6 4.3-5.6 6.3-4.1 4.5-8.5 8.7-12.7 12.3-10.2 8.9-19.5 14.8-21.9 14.3-3.8-0.7-18.9-30.7-18.2-61.4 0.3-14.6 9.1-30.9 18.2-44q1.5-2.1 3-4.1c6.5-8.8 12.7-15.8 15.7-18.9 1.1-1.3 1.8-1.9 1.8-1.9 0 0-2.1-6.7-3.5-12.5q-0.1-0.3-0.1-0.5 0-0.1-0.1-0.2 0-0.1 0-0.1c-0.8-3.6-1.4-6.7-0.9-7.4 1.3-2.1 8.6-4.3 9.9-5.8 1.2-1.6 6.5-27.1 10.6-29.9 3.9-2.6 10.7-4.6 33.4-13.5q1.7-0.6 3.5-1.4c25.5-10.1 50.5-22.3 50.5-22.3l9.6-11.8h4.3l-1.4 3-0.1 0.1q1 4.5 2.4 8.7 0 0.1 0 0.2c13.2 41.7 47.2 55.1 47.2 55.1 23.6-17.4 23.1-45.1 23.1-45.1v-3.8l4.5 1.3 3 7.2c0 0 5.1 8 25.4 16.9 3.5 1.6 7.2 3.5 11.1 5.7 18.6 10.6 39.2 26.9 40.8 30.3q0.2 0.5 0.5 1.7v0.1c2.2 8.5 6.7 40.6 10.9 52 2.6 7.2 6.7 11.1 9.7 13.1q0 0.1 0 0.1c2.3 1.5 3.9 2 3.9 2q0.5 2.6 0.9 5.2c8.7 54.8-7.8 92.1-11.6 94.7z"/>
				<path id="&lt;Path&gt;" class="s22" d="m484.6 423.5l-16.5 5.6-2.6-3.1c0 0-16.3 37.2-31.1 55.4-1.8 2.1-3.6 4.3-5.6 6.3-4.1 4.5-8.5 8.7-12.7 12.3l-12.5-54.1-6.4-41.1c6.5-8.8 12.7-15.8 15.7-18.9 1.1-1.3 1.8-1.9 1.8-1.9 0 0-2.1-6.7-3.5-12.5q-0.1-0.2-0.1-0.5 0-0.1-0.1-0.2 0-0.1 0-0.1c-0.8-3.6-1.4-6.7-0.9-7.4 1.3-2.1 8.6-4.3 9.9-5.8 1.2-1.6 6.5-27.1 10.6-29.9 0 0-2.7 24.5 11.4 55.6l6.8 9.6 19.9 16.1c0 0 7.6 10 15.9 14.6z"/>
				<path id="&lt;Path&gt;" class="s23" d="m436.9 467.9c-3.5 26.2-42.7 46.4-42.7 46.4-8.7 0-18.4-15.1-27.3-33.8-8.8-18.7-9.4-72.4-9.8-75.8-0.5-3.3-5.4-9.9-5.7-12.8-0.3-2.8 7.9-8.7 7.9-8.7v-0.1l-0.1-0.2c-0.8-1.8-5.7-12.2-5.3-14.1 0.3-2.1 9.6-6.6 9.6-6.6l0.6 10.2c0 0 21.5-4.1 28.8-20.8l1.3-5.1 3.6 2.4v22c0 0 0.8 3.4 1.9 3.4 1.1 0 9.5-4.2 11.3-3.6 1.8 0.6 3.5 12.3 5.9 13.8 2.3 1.6 8.6 5.9 9.5 8 0.4 0.9 0.5 4.3 0.5 8.3 0.1 4.9 0.1 10.6 0.8 13.9 1.4 5.8 12.7 26.9 9.2 53.2z"/>
				<path id="&lt;Path&gt;" class="s24" d="m794.9 445.4c-1.8 2.7-10.6 8.6-12.9 10.8-2.3 2.3 0 9.8 0 9.8-37.1 39.4-75.9 59.1-79.8 61.1q-0.3 0.1-0.3 0.1c-23.3-15.7-21.3-41.5-13.6-63.2 7.4-20.9 20.1-38.1 20.7-38.8q0 0 0 0c0.4-0.2 7.1-3 11.9-3.3 1.5-0.1 3 0.5 4.3 1.3 2.9 1.8 5.3 4.6 7.6 3.4 3.4-1.7 11.1-19.8 16.2-20.3 3.7-0.3 8.7 3.4 12 5.5 1.5 0.9 2.6 1.5 3.2 1.4 1.9-0.5 8.3-8.3 8.8-8.5 0.5-0.2 3.5 2 3.5 2l-2.1 2.5c3.2 18.2 13.5 30.5 13.5 30.5l7-10.2c0 0 1.8 13.1 0 15.9z"/>
				<path id="&lt;Path&gt;" class="s25" d="m603 298.5q0 0.4-0.1 0.8-0.1 0.8-0.4 1.6 0 0 0 0c-2.4 8.9-12 17.9-24.1 13.5-13.3-4.7-38.5-58.2-38.5-58.2l2.5-11.4 59.9 48.8 0.7 4.6z"/>
				<g id="&lt;Group&gt;">
					<path id="&lt;Path&gt;" class="s26" d="m401.8 305.9l-20.5 23.4-31.3 1.1-3.3-12.7c-0.4-14.3 25-38.3 25-38.3l4.4 1.3 9.1 12.5h4.2c0 0 2.2-29.7-0.6-42.1-2.8-12.4 3.4-27.8 6-29.3 2.7-1.5 6.3 0 6.3 0 0 0 2.1 16.9 0.4 31.8-1.6 14.9 2.1 35.1 2.1 35.1z"/>
					<path id="&lt;Path&gt;" class="s27" d="m371.7 279.4c0 0 0.7 15.9 4.3 29.5 0 0-0.6 5.6-7.2 6l-1.6-1.8c0 0-1.1 6.4-6.9 6.8l-5.5-5.5 1.4 4.6c0 0-2 4.8-7.2 4.6 0 0-8.7-6.8-9.3-15.7l8.7-7.3v-5.6l10.2-7.2 0.2-4.1c0 0 6-4.4 12.9-4.3z"/>
					<path id="&lt;Path&gt;" class="s28" d="m402.2 279.4l-2.5 14-1.9 5.9c-19.9 12.2-28.6 23.3-28.6 23.3 4.1-8.6 21.7-23.3 21.7-23.3l-1.4-2.6c-9.8 0.2-15.2 4.8-15.2 4.8l-1.5-9.6 1.5-7.7 3.1 10.7 3.6-1.7c-0.2-5.4-4.9-12.5-4.9-12.5l9.1 12.5h4.2l0.3-35.8c0 0 6.3-1.1 8.5-2.6 2.2-1.6 3.7-5.5 3.7-5.5-2.1 9.9 0.3 30.1 0.3 30.1z"/>
					<path id="&lt;Path&gt;" class="s29" d="m416.7 311.6c-1.6 4.9-18.8 25.4-20.7 29.8-1.9 4.4-3.1 10.2-3.1 10.2-8.4 18.3-28.8 20.8-28.8 20.8l-1-16.5c0 0-10.9-6.3-12.8-9.7v-0.1l-0.2-0.6c-0.6-3.2-0.1-15.1-0.1-15.1l19.2-7.8c8.3-10.8 28.6-23.3 28.6-23.3l1-5.7c-14.6-7.1-12.2-28.8-9.7-31.5 2.5-2.6 7-2.6 7-2.6 0 0 5.3 17.4 8.7 25.6 3.4 8.1 13.5 21.6 11.9 26.5z"/>
					<path id="&lt;Path&gt;" class="s30" d="m358.8 283.7c0 0 2.1 19.9 8.4 29.4 0 0-8-9.9-8.6-25.3z"/>
					<path id="&lt;Path&gt;" class="s30" d="m348.4 295c0 0 2 16 11.9 24.9 0 0-8.7-4.3-11.9-19.3z"/>
					<path id="&lt;Path&gt;" class="s31" d="m394.2 346.5c-7.4 23.9-30.1 25.9-30.1 25.9l-1-16.5c13.9 2.3 35.5-18.7 35.5-18.7-1.7 2.4-4.4 9.3-4.4 9.3z"/>
				</g>
				<g id="&lt;Group&gt;">
					<path id="&lt;Path&gt;" class="s32" d="m856.7 365.8c0 0-19.9 36.4-43.2 47.5h-7.9l-18.4 27.9c0 0-11.9-7.5-12.8-32 0 0 4.2-4.3 5.2-9.2 0 0-6.6-5.2-8.3-8.9-1.8-3.8-2.4-15.2-3.7-19.9-1.3-4.7-12-14.4-14.4-15.6-2.4-1.3-13.3-1.9-13.3-1.9 0 0-1.5-4 0-5.8 1.6-1.9 18.5-8.5 27.7-2.2 0 0 0.6 4.8 1.6 7.3 1.1 2.6 9.1 11.5 10.4 11.5 1.3 0 6.7-4.5 9.1-8.1 2.3-3.4 14.5-29.7 17.5-38.6q0-0.1 0.1-0.3c0-0.1 0.1-0.2 0.1-0.4q0-0.1 0.1-0.2 0-0.1 0-0.1c2.3-7.7 15.5-22.5 22.6-26.5 0 0 3-0.8 4.7 3 0 0-5.7 16.2-11.6 25.8-1 1.6-2.1 3.5-3.2 5.5q0 0-0.1 0c-5 9.3-10.7 21.5-11.5 23.3l-0.1 0.2 3.1 1.6 8.6-8.1 8.7-8.3 20.1 21.2-2 2.6-6.2 8 3.1 0.6 7.4-8.2z"/>
					<path id="&lt;Path&gt;" class="s33" d="m852.1 373.5l-6.4 9.4c0 0-34.9-27-42.5-29.2-7.6-2.3-10.3-0.8-10.3-0.8l-7.9 10c0 0 14.4 12.7 15.7 29.9 0 0-4.8-21.7-21.1-28.3 1.3 0 6.7-4.5 9.1-8.1 2.3-3.4 14.5-29.7 17.5-38.6-0.4 1.5-0.9 4.5 0.3 6.8 1.7 3.2 11.8 0.2 12.4 0q0.1 0 0.1 0l-11.6 23.3-0.1 0.2 3.1 1.6 8.6-8.1-4.3 10 31.1 5.5-6.2 8 3.1 0.6z"/>
					<path id="&lt;Path&gt;" class="s34" d="m827.7 333.3c0 0 6.1-0.9 10 7l-0.9 2.5c0 0 5.9 1.2 11.6 10.7 0 0-5 9.3-17.5 13.4 0 0-5.8-1.6-6.8-6.5l1.1-3.2-4.5 3.4c0 0-5.5 1.7-7.9-6.4z"/>
					<path id="&lt;Path&gt;" class="s35" d="m847.2 372.1c-5.2-0.9-5.6-5.2-5.6-5.2l12-13.2c6.2 3.8 4.9 9.6 4.9 9.6-3.1 6-11.3 8.8-11.3 8.8z"/>
					<path id="&lt;Path&gt;" class="s36" d="m771.3 391.1c0 0 13.9 15.5 34.3 22.2l-8.8 13.4-18.4-23.3 1.2-3.4c0 0-7.3-5.5-8.3-8.9z"/>
					<path id="&lt;Path&gt;" class="s30" d="m839.5 344c-4.2 8.7-15.4 16.4-15.4 16.4l1.1-3.2c5.8-4.8 11.6-14.4 11.6-14.4 1.3 0.2 2.7 1.2 2.7 1.2z"/>
				</g>
				<path id="&lt;Path&gt;" class="s37" d="m794.9 445.4c-1.8 2.7-10.6 8.6-12.9 10.8-2.3 2.3 0 9.8 0 9.8-37.1 39.4-75.9 59.1-79.8 61.1q-0.3 0.1-0.3 0.1c-3 0.4-17.8-3.8-32.6-33.3-13.4-26.8-17.2-44.7-17.8-47.8l-0.1-0.5 3.2-4.4 4.9-54.6 3.4 11c12.9-15.5 25-39.4 25-39.4l0.5 1.7v0.1c2.2 8.5 6.7 40.6 10.9 52 2.6 7.2 6.7 11.1 9.7 13.1v0.1c-11.9 10.8-17.8 26.4-20.7 38.8-2.6 11.3-2.8 20-2.8 20 0 0 3.3-15.4 13.6-33.9 3.8-6.7 9.3-12.8 14.7-17.7 4.1-3.7 8.1-6.8 11.4-9.2 2.9 1.8 5.3 4.6 7.6 3.4-15.6 23.4-15.2 69.8-0.6 61 14.7-8.9 18-27.6 18-27.6-3.4-22.9-2.4-48.7 0.4-53.6 3.4 0.1 13 6.9 13.6 6.8-0.9 26.9 11.7 44.8 11.7 44.8l8.4-12.9c-12.2-20.4-11.3-40.4-11.3-40.4 0.5-0.2 3.5 2 3.5 2l-2.1 2.5c3.2 18.2 13.5 30.5 13.5 30.5l7-10.2c0 0 1.8 13.1 0 15.9z"/>
				<path id="&lt;Path&gt;" class="s38" d="m634.1 613.6v8l-0.2 0.1-0.4 0.4-0.4 0.3c-3.6 2.9-18.8 12.2-66.5 14.7-56.5 3-94.1-15.1-94.1-15.1l2.8-7.8c0 0-2.6-2.3-2.8-3.4-0.2-1.2 2-3.8 2-3.8 0 0-5.6-3-5.6-6.8 0-3.5 9.2-13.4 10.7-22.7q0.3-1.5 0.3-2.9c-0.4-10-9.1-18.9-10.3-24.6q0 0 0 0c-1.1-5.7 14.8-19.7 14.8-19.7-13.6-43.2-16.3-101.2-16.3-101.2l-2.6-3.1c0 0-16.3 37.2-31.1 55.4-14.8 18.2-36.4 33.7-40.2 32.9-8.7 0-18.4-15.1-27.3-33.8-8.8-18.7-9.4-72.4-9.8-75.8-0.5-3.3-5.4-9.9-5.7-12.8 9.5 16.3 24.6 11.5 24.6 11.5-11 0.3-16.7-20.2-16.7-20.2v-0.1l-0.1-0.2-5.3-14.1c0.6 0.7 13.1 14.7 25.2 6.1 12.3-8.9 18.7-26 18.7-26v22c0 0 0.8 3.4 1.9 3.4-0.7 10.1-2.9 22.5-5.5 34.6-5.6 26.3-13.3 51.6-13.3 51.6 0 0 20.9-11.3 28.2-40.1 3.5-13.8 4.1-25.8 3.8-34.5-0.3-7.5-1.3-12.6-1.7-14.4q-0.1-0.3-0.1-0.5 0-0.1-0.1-0.2 0 0 0-0.1l2 4.3 3.9 9.5c4.4 37-4.8 92.7-4.8 92.7 13.4-16.7 16.2-53.6 15.6-62.5-0.2-4.3-0.6-9.6-0.8-13.9-0.3-4.7-0.5-8.3-0.5-8.3l27.4 16.4-5-16.1 19.9 16.1c0 0 18 21.6 36.4 24.1 18.5 2.5 86.2 1 86.2 1 0 0-58.9 3.8-76.1 8.8-17.2 5.1-20.4 10.9-20.4 10.9 12.4 63.2 81.1 84.5 83.3 85.1-62.4-9.3-91.4-62.4-91.4-62.4 0 0-1 29.9 3.8 41.2 4.8 11.4 33.1 39.2 69.4 45q4.6 0.7 9.1 0.9c30.7 1.4 56.1-14.2 58.7-15.9q0.2-0.2 0.2-0.2 0 0-0.1 0.1c-0.9 1.5-13.5 19.2-64.3 21.2q-4.6 0.1-9-0.1-0.1 0-0.1 0c-47-1.9-71-33.3-71-33.3 0 0-17.4 9.4-6.3 23.2q0.2 0.3 0.3 0.5c3.3 3.8 10.5 8.4 19.1 13.1q0.3 0.3 0.7 0.4c10.3 5.7 22.4 11.6 31.8 16.5q0 0 0.1 0c5.7 3 10.4 5.6 13 7.5q0.1 0 0.1 0c2.6 1.9 3.1 3.2 0.6 3.5-13.2 1.5-62.9-9.4-65-6.3-2 3 2.5 10.8 2.5 10.8 45.7 22.7 143.4 11.5 146.5 11.2-81.8 20.9-148.7-5.6-148.7-5.6l2.2 7.8c0 0 36.4 12.6 79.4 13.7 42.9 1 69.7-10 69.7-10z"/>
				<path id="&lt;Path&gt;" class="s39" d="m600.6 433.7c0 0 32.5 1.8 54 7.5l-11 16.8c0 0-16.7-14.7-43-24.3z"/>
				<path id="&lt;Path&gt;" class="s40" d="m629.2 535.8c0 0-9.7 15.3-37.9 19.8-28.2 4.6-39.7 1.2-39.7 1.2 0 0 19.2-0.8 39.2-8.6 19.9-7.8 40.2-24.8 40.2-24.8z"/>
				<path id="&lt;Path&gt;" class="s41" d="m640.1 588.6v0.1c-37.5 9.7-85.2-4.3-84.8-6 0.4-1.7 13 0.8 42.4-5.1 28.5-5.7 38.8-15.8 39.4-16.4-0.2 1.7-4.2 5.5-5.3 9.6-0.7 2.7 4.6 11.4 8.3 17.8z"/>
				<path id="&lt;Path&gt;" class="s42" d="m538.1 438.8c-32.1 3.3-40.7 12.2-40.7 12.2-9 1.2-29.3-21.9-29.3-21.9l-2.6-3.1c0 0-16.3 37.2-31.1 55.4-1.8 2.1-3.6 4.3-5.6 6.3l2.1-4.7c0 0 3.5-1.6 4.5-19.7 1-18-7.6-45-7.7-48.6 0-3.7-1.3-22.2-1.3-22.2l27.4 16.4-5-16.1 19.9 16.1c0 0 7.9 11.7 27.6 21.5 18.6 9.3 39.5 8.5 41.8 8.4z"/>
				<path id="&lt;Path&gt;" class="s43" d="m465.5 426l19.1-2.5c0 0 7.6 5.1 22.9 11.3l-12.7 18.9c0 0 5 26.9 19.6 42 0 0-38.6-21.4-44.1-39.5z"/>
				<path id="&lt;Path&gt;" class="s44" d="m373.4 377c12.7-2.9 24.4-28.1 24.4-28.1v22c0 0-10.8 33.4-21.8 32.5-11.1-0.8-16.7-20.2-16.7-20.2l-5.4-14.4c0 0 6.8 11 19.5 8.2z"/>
				<path id="&lt;Path&gt;" class="s45" d="m430.6 327.6c-3.1 20.6 11.4 55.6 11.4 55.6-12.2-6-22-25.7-22-25.7 5.3-26.6 10.6-29.9 10.6-29.9z"/>
				<path id="&lt;Path&gt;" class="s46" d="m659.5 386.6l3.4 11 3.4 90.1c0 0-8.7-17.1-14.8-41.6l3.1-4.9c0 0 5.4-34 4.9-54.6z"/>
				<path id="&lt;Path&gt;" class="s47" d="m764.2 413.2c0 0-1.9 44.2 16.9 48l0.9 4.8c0 0-24.3-0.9-17.8-52.8z"/>
				<path id="&lt;Path&gt;" class="s48" d="m724.4 445.9c0 0-1.8-8.7-9.6-6.3-7.8 2.3-22.3 24-22.3 24 9.1-23.6 32.7-40.4 32.7-40.4 6.9 5 7.6 3.4 7.6 3.4-5.3 7.1-8.4 19.3-8.4 19.3z"/>
				<path id="&lt;Path&gt;" class="s49" d="m351.4 391.9c0 0 9.1 16.8 26.1 11.6 0 0-10.2 6.8-20.4 1.2 0 0-6.4-10.9-5.7-12.8z"/>
				<path id="&lt;Path&gt;" class="s50" d="m416.9 416.6c-4.8 25.2-26 36.1-26 36.1 32.6-35.2 20.1-82 20.1-82 0 0 10.7 20.7 5.9 45.9z"/>
				<path id="&lt;Path&gt;" class="s51" d="m630.3 372.6c-11.6 13.1-36.8 22.4-36.8 22.4 0 0 20.1-10.3 30.2-25.4 10.2-15.2 11.6-36.3 11.6-36.3 0 0 6.6 26.2-5 39.3z"/>
				<path id="&lt;Path&gt;" class="s52" d="m506.4 301.5c0 0 0 17.7 5.7 35.7 5.6 18 55 49.4 55 49.4 0 0-50.9-21.1-60.7-40.1-9.9-19 0-45 0-45z"/>
				<path id="&lt;Path&gt;" class="s53" d="m610.6 305.3c-1.6 18.6-7.2 31.6-13.3 40.3-8.3 12-17.3 16.1-17.3 16.1-9-3.9-16.8-8.8-23.5-14.1-28.5-22.8-37.7-54.4-38.4-57 12 29 29.7 46.7 43.1 56.6 10.8 8 18.8 11 18.8 11v-9.3q-3.2-1.2-6.2-2.7c-23.6-11.9-36-36.7-41.8-52.7q0-0.1 0-0.1c-3.2-8.7-4.4-14.8-4.4-14.8h4.3l-1.4 3-0.1 0.1q1 4.5 2.4 8.7 0 0.1 0 0.2c13.2 41.7 47.2 55.1 47.2 55.1 23.6-17.4 23.1-45.1 23.1-45.1v-3.8l4.5 1.3z"/>
				<path id="&lt;Path&gt;" class="s54" d="m764.2 413.2c0 0-6.4-1.7-8.7 1.9-2.2 3.6-5.3 44.9-5.3 44.9-6-32.6 0.4-53.6 0.4-53.6 3.6 1.2 13.6 6.8 13.6 6.8z"/>
				<path id="&lt;Path&gt;" class="s55" d="m688.3 520.4c-5.6-4.9-12.3-13.1-19-26.5-13.4-26.8-17.2-44.7-17.8-47.8l3.1-4.9 4.3-41.2 4-2.4c0 0 14.2-15.7 25-39.4q0.2 0.6 0.5 1.7v0.1c2.2 8.5 6.7 40.6 10.9 52 2.6 7.2 6.7 11.1 9.7 13.1 0 0-24.6 36.6-25.8 62.6-1.1 23.7 4.2 31.5 5.1 32.7z"/>
				<path id="&lt;Path&gt;" class="s56" d="m542.2 596.5c0 0-44.4-7.3-62.5-18.9q-0.1 0-0.1-0.1 0.3-1.5 0.3-2.9c-0.4-10-9.1-18.9-10.3-24.6 0.2 0.6 1.5 3.6 7.8 9 4 3.4 10 7.8 19.1 13.1q0.3 0.3 0.7 0.4c12.8 7.6 23.8 12.7 31.8 16.5q0 0 0.1 0c7.2 3.4 11.8 5.6 13 7.5q0.1 0 0.1 0z"/>
				<path id="&lt;Path&gt;" class="s57" d="m637.1 561.2c-0.2 1.7-4.2 5.5-5.3 9.6 0 0-16.3 17.2-76.5 11.9 0.4-1.7 13 0.8 42.4-5.1 28.5-5.7 38.8-15.8 39.4-16.4z"/>
				<path id="&lt;Path&gt;" class="s58" d="m647.1 327.9l-38.5 12.5-11.3 5.2v0.1h-7.4-9.9l-6.2 0.5-3.3 0.2-9.3 0.8-4.7 0.4-46.2-16.8-8.3-2.9-38-13.8q1.7-0.6 3.5-1.4c25.5-10.1 50.5-22.3 50.5-22.3l9.6-11.8h4.3c3.8-8.4 6.3-16.2 8-22.4l2.5-11.4c0.2-1.1 0.3-1.7 0.3-1.7l13.6 7.2 45.8 36.7c0 2.5 0.1 4.7 0.2 6.6l0.7 4.6c0.1-0.9 0.1-1.4 0.1-1.4l4.5 1.3 3 7.2c0 0 5.1 8 25.4 16.9 3.5 1.6 7.2 3.5 11.1 5.7z"/>
				<g id="&lt;Group&gt;">
					<path id="&lt;Path&gt;" class="s59" d="m617.8 292.8c0 0-18 4-37.8-5.6-19.8-9.6-36.5-37.9-37.5-44.9-1-7.1 7.6-25.6 7.6-40 0-14.4-7.1-39.1 4.8-52.5 11.9-13.4 66.4-15.4 84.1 1.8 0 0 5.5 13.7 5.5 21.5 0 1.9-0.3 4.6-0.8 7.8-0.2 1.2-0.4 2.5-0.6 3.8-1.6 9.4-3.8 20.9-2.8 25.9 0.4 1.8 1 3.4 1.6 4.9v0.1c2.2 5 5.4 9 6 13.4 0.8 5.7-6.9 46.1-30.1 63.8z"/>
					<path id="&lt;Path&gt;" class="s60" d="m544.2 231.2c0 0-11.1 1.4-14.1-7.9-3.1-9.3-5.7-29.2-5.7-29.2 1.1-5.5 8.3-8.3 8.3-8.3 12.3 0.2 17.2 12.5 17.2 12.5 4 18.1-5.7 32.9-5.7 32.9z"/>
					<path id="&lt;Path&gt;" class="s61" d="m602.5 237.2l0.6 1.1c0 0 5.1 5.2 16.9 7.5 11.8 2.2 13.5-4.3 13.5-4.3 4.2 1.3 5 4.1 5 4.1 0 0-1.9-2.5-3.7-2.1-1.7 0.3-7.2 7.3-15.3 5.6-8.2-1.7-14.6-8-16.4-9.3-1.7-1.3-5.8-1-5.8-1 1.9-0.9 5.2-1.6 5.2-1.6z"/>
					<path id="&lt;Path&gt;" class="s62" d="m616.9 165.2c0.5 19-8.3 44.7-8.3 44.7-11.7 3-32-6.8-32-6.8l-7.9 5.5c0 0 10.8 13.3 12.7 27.8l-5.1 4.5-18-9.6-7.4-43.5 2.1-32.9 16.7-13.4 68.4 1.1 9.9 20-4.3 6.5c0 0-5.3-14.6-28.6-14-23.3 0.6-35.1 21.2-35.1 21.2l-0.2 1.3c7.1-8 37.1-12.4 37.1-12.4z"/>
					<path id="&lt;Path&gt;" class="s63" d="m578.8 179.1c0 0 1.1-7.4 13.7-10.4 14-3.3 25.4-6.1 25.4-6.1 0 0-2.5 8.1-7.2 11.2 0 0-14.8-0.5-22.3 1.2-7.5 1.7-9.6 4.1-9.6 4.1z"/>
					<path id="&lt;Path&gt;" class="s63" d="m643.1 184.7c0 0 0.4-2.9-2.5-3-4.2-0.1-8.9 6-8.9 6 4.8-13.1 12-18.6 12-18.6 2.3 7.8-0.6 15.6-0.6 15.6z"/>
					<path id="&lt;Path&gt;" class="s64" d="m583.5 200.2c0 0 0.8-15.7 16.1-19.7 0 0 5.5 7.1 6.1 15.1 0 0-8.2-1.5-22.2 4.6z"/>
					<path id="&lt;Path&gt;" class="s65" d="m627.5 206.4c0 0 1.2-12.5 8.4-17.1 0 0 4.9 3.7 4.4 14.1 0 0-4.3-1.5-12.8 3z"/>
					<path id="&lt;Path&gt;" class="s66" d="m604.8 195.5c0.3 8-2.4 12-2.4 12-13.9-1.2-18.9-7.3-18.9-7.3 8.5-5.9 21.3-4.7 21.3-4.7z"/>
					<path id="&lt;Path&gt;" class="s66" d="m640 203.4c-0.2 6.2-2.7 10.1-2.7 10.1-7.7-0.7-9.8-5.2-9.8-5.2v-1.9c7.6-4.3 12.5-3 12.5-3z"/>
					<path id="&lt;Path&gt;" class="s67" d="m604.8 195.5c0.7 7.8-2.4 12-2.4 12-2.6-0.1-7.2-1.2-7.2-1.2-0.3-6.8 3.2-11.1 3.2-11.1 2.4-0.5 6.4 0.3 6.4 0.3z"/>
					<path id="&lt;Path&gt;" class="s67" d="m640 203.4c0.1 6.1-2.7 10.1-2.7 10.1-2.2 0-4.9-1.2-4.9-1.2 0.4-6.6 2.4-8.7 2.4-8.7 3.2-1 5.2-0.2 5.2-0.2z"/>
					<path id="&lt;Path&gt;" class="s63" d="m597.3 206.8c0 0-1.3-8.5 3.6-11.8l3.9 0.5c0 0 1.4 6.8-2.4 12 0 0-3.9-0.4-5.1-0.7z"/>
					<path id="&lt;Path&gt;" class="s63" d="m640 203.4c0 6.8-2.7 10.1-2.7 10.1-2-0.1-3.4-0.6-3.4-0.6 0.8-5.9 2.6-9.7 2.6-9.7 1.4-0.4 3.5 0.2 3.5 0.2z"/>
					<path id="&lt;Path&gt;" class="s68" d="m605.7 195.6l2.9 2.3c-15.8-3.1-25.1 2.3-25.1 2.3 10.9-8.1 22.2-4.6 22.2-4.6z"/>
					<path id="&lt;Path&gt;" class="s68" d="m640 201.9l3.6 2.7c-8.7-2.1-16.1 1.8-16.1 1.8 6.7-5.4 12.5-4.5 12.5-4.5z"/>
					<path id="&lt;Path&gt;" class="s9" d="m593.5 200.2c0 0 2.6-0.6 4.8 1.7 0 0-3.1 0.9-4.8-1.7z"/>
					<path id="&lt;Path&gt;" class="s9" d="m630.9 207.5c0 0 3.9-0.8 5.3 1.1 0 0-2.1 1.4-5.3-1.1z"/>
					<path id="&lt;Path&gt;" class="s69" d="m602.4 207.5l1.1-1.8-0.3 4.2c-11.6-1.7-18.8-8.8-18.8-8.8 6.9 5.8 18 6.4 18 6.4z"/>
					<path id="&lt;Path&gt;" class="s69" d="m637.3 213.5l0.5-0.8 0.3 2.3c-9.4-2.1-10.6-6.7-10.6-6.7 3.1 4.4 9.8 5.2 9.8 5.2z"/>
					<path id="&lt;Path&gt;" class="s70" d="m608.6 226.7c0 0 3.5-0.7 9.9 0 6.5 0.8 13.7 2.5 17.7 0 0 0-5.3 5.3-9.8 6.1-4.6 0.8-11.5-3.2-11.5-3.2h-3c0 0-2.4-1.1-3.3-2.9z"/>
					<path id="&lt;Path&gt;" class="s71" d="m612.3 229.6c0 0 1.6-1 2.9-0.7 1.3 0.2 2.7 2.1 2.7 2.1 0 0-2.8-1.4-5.6-1.4z"/>
					<path id="&lt;Path&gt;" class="s72" d="m628.3 227.9c-5.6-0.7-11.4-1.5-11.4-1.5 0 0 3.9-18 8.1-17.4 4.2 0.5 12.9 16.1 11.2 17.7 0 0-2.3 2-7.9 1.2z"/>
					<path id="&lt;Path&gt;" class="s73" d="m643.7 180.9c-0.1 1.8-0.6 3.8-0.6 3.8-1.6 9.4-3.8 20.9-2.8 25.9 0.4 1.8 1 3.4 1.6 4.9v0.1l-0.5 0.8c0 0-12.9-2.6-13.9-7.4-1.1-4.9 4.2-21.3 4.2-21.3 0 0 8.4-10.2 10.7-9.9 1.1 0.2 1.3 1.6 1.3 3.1z"/>
					<path id="&lt;Compound Path&gt;" fill-rule="evenodd" class="s74" d="m646.5 240.1c-0.2 1.9-6.7 42.3-25.4 54.5q0 0.1 0 0.1c0 0-17 4.1-42.7-5.5 0 0-29-16.5-36-44.4 0 0-1.6-6.5 1.8-13.6 0 0 4.9-2 7.1-14.8 2.5-14.2-5-23.9-5-23.9 0 0 1-7.7-1.3-16.4-2.2-8.8-6.5-17.2-4.6-23.4 1.9-6.2 17.7-10.1 24.9-16 1.3-1 2.3-2 3.2-3q0 0 0 0 0.1 0 0.2-0.1c0.9-1 1.7-2 2.4-3l0.8-0.9 0.8-0.9c2.1-2.5 4.7-4.9 10.2-7.4 11-5.1 18.7-5.9 26.6-13q0.1-0.1 0.1-0.1c0 0 0.4 7.2-2.2 13.4 0 0 24.2-5.4 29.9-5.4 5.7 0 7.6 18.1 7.6 18.1v0.1c0.4 0.5 7.2 9.6 9.6 15.9 1.4 3.4-10.4 27.2-10.4 27.2 0 0 1.4-11.3-5.8-21.7l-2.7 2.4c0 0-0.1-0.2-0.3-0.6-1.1-2.1-5-8.4-11.8-10.2 0 0 0 1.3-21.4-0.9-21.4-2.3-30.2-3.4-35.3 1.5-5.1 4.9-3.2 16.5 1.5 20.4 0 0-13 13.9-12.7 33.4 0.4 18.8 14.6 32.7 20.6 35.1q0.3 0.1 0.7 0.2c5.5 1.5 8.3-8.5 41-4.2 23.1 3.1 21.5 6 24.1 11.5 0.7 1.5 4.2-3.9 4.5-4.4zm-6.5 12.3c0.2-8.6-5.9-11.4-7.1-10.9-1.1 0.5-4.5 2.2-14 1.6-9.4-0.6-15.8-5.9-15.8-5.9 0 0-12.2 1.3-15.7 11.1-3.5 9.9 12.7 16.4 15.7 16.2 3.1-0.3 10.6-8.9 10.6-8.9 0 0 8.3-0.6 9.8 0.9 1.5 1.5 2.4 13 7 13.8 4.5 0.8 9.4-12 9.5-17.9z"/>
					<path id="&lt;Path&gt;" class="s75" d="m629.3 212.4c0 0 8.2 10.2 7.4 14-0.9 4.2-10.3 6.4-10.3 6.4 0 0 7.6-2.6 9.1-6.4 0 0-1.9-7.7-6.2-14z"/>
					<path id="&lt;Path&gt;" class="s76" d="m644.1 177.6c0 0 1.4-11.3-5.8-21.7 5.7-10.4 6.6-21.5 6.6-21.5v0.1c2 4.8 3.1 14.2 3.1 14.2l6.5 1.7c1.4 3.4-10.4 27.2-10.4 27.2z"/>
					<path id="&lt;Path&gt;" class="s77" d="m635.3 157.7c-1.1-2.1-5-8.4-11.8-10.2 0 0 0 1.3-21.4-0.9-21.4-2.3-30.2-3.4-35.3 1.5-5.1 4.9-3.2 16.5 1.5 20.4 0 0-13 13.9-12.7 33.4 0.4 18.8 14.6 32.7 20.6 35.1l-0.3 2c0 0 1.1 43 11.5 46.5 10.5 3.4 32.2 1.6 34.2 3.6 1.9 1.9-0.3 5.2-0.5 5.5q0 0.1 0 0.1c0 0-17 4.1-42.7-5.5 0 0-29-16.5-36-44.4 0 0-1.6-6.5 1.8-13.6 0 0 4.9-2 7.1-14.8 2.5-14.2-5-23.9-5-23.9 0 0 1-7.7-1.3-16.4-2.2-8.8-6.5-17.2-4.6-23.4 12.1 1.9 20-4.4 20-4.4 0 0 2.2-3 11.5-4.5 9.4-1.5 47.1 2.3 47.1 2.3 0 0-3.8-3.1-11.7-5.2-7.5-2-33.2 0.3-36 0.5 3-0.5 32.1-5.5 35.4-4.5 3.5 1 16.1 6.8 16.1 6.8-1.1-5.8-12.4-19.7-12.4-19.7 0 0-15.9 0.3-26.3 2.5-9.3 1.9-14.4 6.2-15.4 7.1l2.4-3 0.8-0.9 0.8-0.9 3.6-0.6 18.3-7.4c6.1-3.3 14-11.4 14.9-12.4q0.1-0.1 0.1-0.1c0 0 0.4 7.2-2.2 13.4 15.4-1.9 20.6-0.9 20.6-0.9 7 9.9 7.3 36.9 7.3 36.9z"/>
					<path id="&lt;Path&gt;" class="s78" d="m578.4 289.2c0 0 9.4-2.2 23.7-1.6 14.3 0.5 22.5 0.6 19 7.1 0 0-18 4-42.7-5.5z"/>
					<path id="&lt;Path&gt;" class="s79" d="m607.4 121.7c0 0 28.5-6.3 30-5.9 1.4 0.4 2.7 2.2 2.7 2.2-3.4-0.6-12.1 2.8-12.1 2.8-2.8-1.1-20.6 0.9-20.6 0.9z"/>
					<path id="&lt;Path&gt;" class="s80" d="m610.4 124c0 0-0.7 9.5-3.7 12.9l-35.4 4.5-10.4-1.8c0 0 4.1-1.7 8.5-6.9 4.4-5.1 27.5-10.2 41-8.7z"/>
					<path id="&lt;Path&gt;" class="s81" d="m654.5 150.4l-6.5-1.7c-0.2-5-3.1-14.3-3.1-14.3 7.6 8.9 9.6 16 9.6 16z"/>
					<path id="&lt;Path&gt;" class="s82" d="m541.8 211.6c-0.3 2.2 1.5 9.6-0.2 9.7-1.7 0.1-6.2-4.6-5-11.2 1.2-6.5 3.3-9 3.3-9 0 0-6.5-4.8-8.1-3.6-1.6 1.3-1.5 11.6-0.9 18.9 0.6 7.3 4.8 11.1 4.8 11.1 0 0-3-1.4-5-6.8-2-5.4-3.9-27.6-3.9-27.6 0 0 7-1.9 13.1 4 6.1 5.9 8.6 17.9 8.6 17.9-2.6-5.1-6.4-5.5-6.7-3.4z"/>
					<path id="&lt;Path&gt;" class="s83" d="m546.8 209.2c0 0-4.4-1.2-4.9 1.5-0.6 2.7 0.4 7.6 0.4 9.5 0 1.9-5.1 2.3-5.9-6.7-0.7-9 6-13.4 6-13.4 1.5 2 4.4 9.1 4.4 9.1z"/>
					<path id="&lt;Path&gt;" class="s84" d="m646.5 240.1c0 0-8.2 37.7-25.4 54.6 0 0 19.6-7.7 25.4-54.6z"/>
					<path id="&lt;Path&gt;" class="s84" d="m645.5 135.3c-0.7 10.8-7.2 20.6-7.2 20.6 0 0 5.1-13.1 4.2-24.9-0.8-11.8-5.1-15.2-5.1-15.2 3.4 1.3 8.7 8.8 8.1 19.5z"/>
				</g>
				<path id="&lt;Path&gt;" class="s85" d="m605.1 140.5c9.5 1.3 13.9 5.6 13.9 5.6 0 0-2.3-0.2-13.3-1.2-11.1-1-21.2-4.4-21.2-4.4 0 0 11.1-1.3 20.6 0z"/>
				<path id="&lt;Path&gt;" class="s86" d="m633.2 236.6c1.4-0.3 4.2 1.1 5.9 2.4 2.3 1.9 4.6 10.3 4.6 10.3l-1.7 6.7c0 0-0.5-4.2-2-9-1.9-6.1-6.7-6.1-6.7-6.1z"/>
				<path id="&lt;Path&gt;" class="s87" d="m631.6 236.6l-0.7 4.3c-3.9 1.6-9.8 1.2-9.8 1.2l-0.8-7.2c3.8-0.2 11.3 1.7 11.3 1.7z"/>
				<path id="&lt;Path&gt;" class="s84" d="m687.5 356c1.6 3.7 0.9 3.9 3.8 19 2.9 15.1 7.1 34.3 7.1 34.3-6.1-11.8-7.9-38.9-12.4-47.6-4.4-8.6-38.9-33.8-38.9-33.8 13.1 6.6 38.8 24.4 40.4 28.1z"/>
				<path id="&lt;Path&gt;" class="s84" d="m628.4 542.8c0.1 5.5 10.5 13.9 10.3 17.3-0.3 3.4-7.8 7.2-6.8 12.4 0.4 2 13.5 21.7 13 24-0.5 2.4-10.8 17.1-10.8 17.1 0 0 9.1-15 9.2-16.4 0.4-4.7-13.7-20.1-14-22.6-0.4-2.4 7.8-13.4 7.8-13.4-0.5-2.7-11.2-12.5-12-17.3-0.8-4.8 15.8-75.9 15.8-75.9 0 0-12.6 69.2-12.5 74.8z"/>
				<path id="&lt;Path&gt;" class="s84" d="m644.3 637.5c0 0 35.9 81.2 48.2 162.5 0 0-2.1-79.3-48.2-162.5z"/>
				<path id="&lt;Path&gt;" class="s72" d="m416.7 311.6c0 0-9.3-2-13.1-10.1-3.9-8.1-1.4-19.8-1.4-19.8 0 0 7.3 13.9 10.9 18.7 3.6 4.8 4.6 10.2 3.6 11.2z"/>
			</g>
			<g id="&lt;Group&gt;">
				<path id="&lt;Path&gt;" class="s88" d="m716.7 255.2l327.2-2.1c7.6-0.1 13.8 6.2 13.6 13.8l-4.4 185.8c-0.2 7.3-6.2 13.2-13.6 13.2h-316.2c-7.3 0-13.3-5.8-13.5-13.1l-6.5-183.6c-0.3-7.6 5.8-13.9 13.4-14z"/>
				<g id="&lt;Group&gt;">
					<path id="&lt;Compound Path&gt;" fill-rule="evenodd" class="s89" d="m1039.5 466.4h-316.2c-7.6 0-13.8-6-14-13.6l-6.5-183.6c-0.1-3.8 1.3-7.4 3.9-10.2 2.7-2.7 6.2-4.2 10-4.3l327.2-2.1c3.8 0 7.4 1.4 10.1 4.2 2.7 2.7 4.1 6.3 4 10.1l-4.4 185.8c-0.2 7.7-6.4 13.7-14.1 13.7zm4.5-212.8q-0.1 0-0.1 0l-327.1 2.1c-3.6 0.1-6.9 1.5-9.4 4-2.4 2.6-3.7 6-3.6 9.5l6.5 183.6c0.2 7.1 5.9 12.6 13 12.6h316.2c7.1 0 12.9-5.7 13.1-12.7l4.4-185.8c0.1-3.5-1.2-6.9-3.7-9.4-2.5-2.5-5.8-3.9-9.3-3.9z"/>
				</g>
				<path id="&lt;Path&gt;" class="s90" d="m703.6 268.3c-0.1-6.8 5.3-12.5 12.2-12.5l327-2.6c8.5-0.1 15.4 7.1 14.9 15.7l-0.6 9.7h-353.3z"/>
				<path id="&lt;Path&gt;" class="s91" d="m829.7 292.8v106.8h-108.1v-106.2z"/>
				<path id="&lt;Path&gt;" class="s92" d="m981.3 347.6h-47.1v-47.1h47.1z"/>
				<path id="&lt;Path&gt;" class="s93" d="m1036.8 347.6h-47.1v-47.1h47.1z"/>
				<path id="&lt;Path&gt;" class="s94" d="m924.8 347.6h-47v-47.1h47z"/>
				<path id="&lt;Path&gt;" class="s95" d="m1036.8 386.3h-120.3v-11.3h120.3z"/>
				<path id="&lt;Path&gt;" class="s95" d="m1036.8 395.6h-150.4v-3.5h150.4z"/>
				<path id="&lt;Path&gt;" class="s95" d="m916.6 357.1h-28.8v-3.5h28.8z"/>
				<path id="&lt;Path&gt;" class="s95" d="m972.1 357.1h-28.7v-3.5h28.7z"/>
				<path id="&lt;Path&gt;" class="s95" d="m1027.6 357.1h-28.7v-3.5h28.7z"/>
				<path id="&lt;Path&gt;" class="s95" d="m926.2 401.3h-48.4v-3.5h48.4z"/>
				<path id="&lt;Path&gt;" class="s95" d="m1036.8 406.9h-150.4v-3.5h150.4z"/>
				<path id="&lt;Path&gt;" class="s95" d="m1036.8 412.5h-159v-3.5h159z"/>
				<path id="&lt;Path&gt;" class="s95" d="m1036.8 418.1h-159v-3.5h159z"/>
				<path id="&lt;Path&gt;" class="s95" d="m1036.8 440.8h-150.4v-3.5h150.4z"/>
				<path id="&lt;Path&gt;" class="s95" d="m1036.8 446.4h-159v-3.5h159z"/>
				<path id="&lt;Path&gt;" class="s95" d="m1036.8 452h-159v-3.5h159z"/>
				<path id="&lt;Path&gt;" class="s95" d="m1030.4 423.7h-152.6v-3.5h152.6z"/>
				<path id="&lt;Path&gt;" class="s95" d="m1036.8 429.3h-150.4v-3.5h150.4z"/>
				<path id="&lt;Path&gt;" class="s95" d="m1006.6 434.9h-128.8v-3.5h128.8z"/>
				<g id="&lt;Group&gt;" style="mix-blend-mode: soft-light">
					<path id="&lt;Compound Path&gt;" fill-rule="evenodd" class="s96" d="m751.9 378.3c-17 0-30.8-13.8-30.8-30.7 0-17 13.8-30.8 30.8-30.8 16.9 0 30.7 13.8 30.7 30.8 0 16.9-13.8 30.7-30.7 30.7zm0-59.5c-15.9 0-28.8 12.9-28.8 28.8 0 15.8 12.9 28.7 28.8 28.7 15.8 0 28.7-12.9 28.7-28.7 0-15.9-12.9-28.8-28.7-28.8z"/>
				</g>
				<path id="&lt;Path&gt;" class="s9" d="m768.6 347.6c0 9.2-7.5 16.7-16.7 16.7-9.3 0-16.8-7.5-16.8-16.7 0-9.3 7.5-16.8 16.8-16.8 9.2 0 16.7 7.5 16.7 16.8z"/>
				<g id="&lt;Group&gt;" style="mix-blend-mode: soft-light">
					<path id="&lt;Compound Path&gt;" fill-rule="evenodd" class="s96" d="m829.7 323.6c-17 0-30.8-13.8-30.8-30.8 0-16.9 13.8-30.7 30.8-30.7 17 0 30.8 13.8 30.8 30.7 0 17-13.8 30.8-30.8 30.8zm0-59.5c-15.9 0-28.8 12.9-28.8 28.7 0 15.9 12.9 28.8 28.8 28.8 15.9 0 28.8-12.9 28.8-28.8 0-15.8-12.9-28.7-28.8-28.7z"/>
				</g>
				<path id="&lt;Path&gt;" class="s9" d="m845.4 292.8c0 8.7-7 15.8-15.7 15.8-8.7 0-15.7-7.1-15.7-15.8 0-8.7 7-15.7 15.7-15.7 8.7 0 15.7 7 15.7 15.7z"/>
				<g id="&lt;Group&gt;" style="mix-blend-mode: soft-light">
					<path id="&lt;Path&gt;" class="s9" d="m716.2 264.2l2.2-3.4 12.2 10.6-1.9 2.6z"/>
					<path id="&lt;Path&gt;" class="s9" d="m718.3 274l-1.8-2.6 12.1-10.6 2.3 3.4z"/>
				</g>
				<path id="&lt;Path&gt;" class="s9" d="m1048.6 268.5h-108.9v-5.4h108.9z"/>
			</g>
			<g id="&lt;Group&gt;">
				<path id="&lt;Path&gt;" class="s97" d="m424 182.7l-0.8 49.3-56.5-0.5v-47.3z"/>
				<path id="&lt;Path&gt;" class="s98" d="m424 182.7l3.7 6.2-1.9 43-2.6 0.1z"/>
				<path id="&lt;Path&gt;" class="s9" d="m376.8 200.2l5.2-7.6 28.2 23.7-4.3 5.8z"/>
				<path id="&lt;Path&gt;" class="s9" d="m381.8 222.1l-4.3-5.8 28.2-23.7 5.3 7.6z"/>
			</g>
			<g id="&lt;Group&gt;">
				<path id="&lt;Path&gt;" class="s99" d="m498.5 740.4h-193.3c-8.6 0-15.7-6.9-15.9-15.5l-3.6-158.6c-0.2-8.9 7-16.2 15.9-16.2h201.3c8.9 0 16.1 7.3 15.8 16.2l-4.3 158.7c-0.3 8.5-7.3 15.4-15.9 15.4z"/>
				<g id="&lt;Group&gt;">
					<path id="&lt;Compound Path&gt;" fill-rule="evenodd" class="s100" d="m498.5 740.9h-193.3c-8.8 0-16.2-7.2-16.4-16l-3.6-158.6c-0.1-4.4 1.6-8.6 4.7-11.8 3.1-3.2 7.2-4.9 11.7-4.9h201.3c4.4 0 8.6 1.7 11.7 4.9 3.1 3.2 4.7 7.4 4.6 11.9l-4.3 158.6c-0.3 8.9-7.4 15.9-16.4 15.9zm-196.9-190.3c-4.2 0-8.1 1.6-11 4.6-2.9 3-4.5 6.9-4.4 11.1l3.6 158.6c0.2 8.2 7.1 15 15.4 15h193.3c8.4 0 15.1-6.6 15.4-15l4.3-158.6c0.1-4.1-1.4-8.1-4.3-11.1-2.9-3-6.8-4.6-11-4.6z"/>
				</g>
				<g id="&lt;Group&gt;">
					<path id="&lt;Path&gt;" class="s9" d="m439.5 586.9h-101.7v-4.4h101.7z"/>
					<path id="&lt;Path&gt;" class="s9" d="m388.7 597.5h-50.9v-4.4h50.9z"/>
					<path id="&lt;Path&gt;" class="s9" d="m388.7 606.3h-50.9v-4.3h50.9z"/>
					<path id="&lt;Path&gt;" class="s9" d="m434.9 606.3h-40.5v-4.3h40.5z"/>
					<path id="&lt;Path&gt;" class="s9" d="m419.8 615.1h-82v-4.3h82z"/>
					<path id="&lt;Path&gt;" class="s9" d="m367 624h-29.2v-4.4h29.2z"/>
					<path id="&lt;Path&gt;" class="s9" d="m423.5 650.5h-50.5v-4.3h50.5z"/>
					<path id="&lt;Path&gt;" class="s9" d="m429.3 632.8h-91.5v-4.3h91.5z"/>
					<path id="&lt;Path&gt;" class="s9" d="m408.2 641.7h-70.4v-4.4h70.4z"/>
					<path id="&lt;Path&gt;" class="s9" d="m370.9 650.5h-33.1v-4.3h33.1z"/>
					<path id="&lt;Path&gt;" class="s9" d="m388.7 659.4h-50.9v-4.4h50.9z"/>
					<path id="&lt;Path&gt;" class="s9" d="m352.4 668.2h-14.6v-4.4h14.6z"/>
					<path id="&lt;Path&gt;" class="s9" d="m411.4 668.2h-53v-4.4h53z"/>
					<path id="&lt;Path&gt;" class="s9" d="m423.5 676.8h-50.5v-4.4h50.5z"/>
					<path id="&lt;Path&gt;" class="s9" d="m370.9 676.8h-33.1v-4.4h33.1z"/>
					<path id="&lt;Path&gt;" class="s9" d="m388.7 685.6h-50.9v-4.3h50.9z"/>
					<path id="&lt;Path&gt;" class="s9" d="m352.4 694.5h-14.6v-4.4h14.6z"/>
					<path id="&lt;Path&gt;" class="s9" d="m411.4 694.5h-53v-4.4h53z"/>
				</g>
			</g>
			<path id="&lt;Path&gt;" class="s101" d="m1017.4 217.7c0 4.9-4 8.9-8.9 8.9-4.9 0-8.9-4-8.9-8.9 0-5 4-9 8.9-9 4.9 0 8.9 4 8.9 9z"/>
			<path id="&lt;Path&gt;" class="s102" d="m179.6 425c0 6.1-4.9 11.1-11.1 11.1-6.1 0-11.1-5-11.1-11.1 0-6.2 5-11.2 11.1-11.2 6.2 0 11.1 5 11.1 11.2z"/>
			<path id="&lt;Path&gt;" class="s103" d="m1043.7 217.7c0 4.9-4 8.9-9 8.9-4.9 0-8.9-4-8.9-8.9 0-5 4-9 8.9-9 5 0 9 4 9 9z"/>
			<path id="&lt;Path&gt;" class="s104" d="m464.7 279.1c0 3.5-2.8 6.4-6.3 6.4-3.5 0-6.3-2.9-6.3-6.4 0-3.5 2.8-6.3 6.3-6.3 3.5 0 6.3 2.8 6.3 6.3z"/>
			<path id="&lt;Path&gt;" class="s105" d="m888 558c0 3.5-2.8 6.3-6.3 6.3-3.5 0-6.3-2.8-6.3-6.3 0-3.5 2.8-6.3 6.3-6.3 3.5 0 6.3 2.8 6.3 6.3z"/>
			<path id="&lt;Path&gt;" class="s106" d="m230.3 621c0 3.1-2.5 5.7-5.6 5.7-3.1 0-5.7-2.6-5.7-5.7 0-3.1 2.6-5.6 5.7-5.6 3.1 0 5.6 2.5 5.6 5.6z"/>
			<g id="&lt;Group&gt;">
				<path id="&lt;Path&gt;" class="s107" d="m321 565.5h-97.6c-7.9 0-14.3-6.2-14.6-14l-2.1-64.2c-0.3-8.3 6.3-15.1 14.5-15.1h101.7c8.3 0 14.9 6.8 14.6 15l-2 64.2c-0.2 7.9-6.6 14.1-14.5 14.1z"/>
				<g id="&lt;Group&gt;">
					<path id="&lt;Compound Path&gt;" fill-rule="evenodd" class="s108" d="m321 566h-97.6c-8.2 0-14.8-6.4-15.1-14.5l-2.1-64.2c-0.2-4.1 1.3-8 4.2-11 2.9-3 6.7-4.6 10.8-4.6h101.8c4.1 0 7.9 1.6 10.8 4.6 2.8 2.9 4.3 6.8 4.2 10.9l-2 64.2c-0.2 8.2-6.8 14.6-15 14.6zm-99.8-93.3c-3.8 0-7.4 1.5-10.1 4.3-2.7 2.8-4.1 6.4-3.9 10.3l2.1 64.1c0.3 7.7 6.5 13.6 14.1 13.6h97.6c7.6 0 13.8-5.9 14-13.6l2-64.2c0.1-3.8-1.3-7.5-4-10.2-2.6-2.8-6.2-4.3-10-4.3z"/>
				</g>
				<g id="&lt;Group&gt;">
					<path id="&lt;Path&gt;" class="s9" d="m248.8 506.1l-13.1 14.9 14.2 12.2v10.8l-24.6-20.8 24.1-27.9z"/>
				</g>
				<g id="&lt;Group&gt;">
					<path id="&lt;Path&gt;" class="s9" d="m291.7 496.5l24.1 27.9-24.5 20.8v-10.7l14.1-12.3-15.7-16.7z"/>
				</g>
				<g id="&lt;Group&gt;">
					<path id="&lt;Path&gt;" class="s9" d="m254.7 544l20.9-46.2h9.9l-23.8 46.2z"/>
				</g>
			</g>
			<g id="&lt;Group&gt;">
				<path id="&lt;Path&gt;" class="s109" d="m977.6 697.6h-122.1c-9.8 0-17.8-7.7-18.2-17.6l-2.7-80.3c-0.3-10.3 7.9-18.8 18.2-18.8h127.3c10.3 0 18.5 8.5 18.2 18.8l-2.4 80.3c-0.3 9.8-8.4 17.6-18.3 17.6z"/>
				<g id="&lt;Group&gt;">
					<path id="&lt;Compound Path&gt;" fill-rule="evenodd" class="s108" d="m977.6 698.1h-122.1c-10.1 0-18.3-7.9-18.7-18l-2.7-80.4c-0.1-5.1 1.7-9.9 5.3-13.6 3.5-3.7 8.3-5.7 13.4-5.7h127.3c5.1 0 9.9 2 13.4 5.7 3.6 3.6 5.5 8.5 5.3 13.6l-2.4 80.3c-0.4 10.2-8.6 18.1-18.8 18.1zm-124.8-116.7c-4.8 0-9.3 1.9-12.7 5.4-3.4 3.5-5.1 8.1-5 12.9l2.7 80.3c0.4 9.6 8.1 17.1 17.7 17.1h122.1c9.7 0 17.5-7.5 17.8-17.1l2.4-80.3c0.2-4.9-1.6-9.5-5-12.9-3.3-3.5-7.9-5.4-12.7-5.4z"/>
				</g>
				<path id="&lt;Path&gt;" class="s95" d="m970.9 660.2h-111.8v-66.4h111.8z"/>
				<path id="&lt;Path&gt;" class="s9" d="m933.7 625.5l-28.6 18.3v-33.5z"/>
				<path id="&lt;Path&gt;" class="s95" d="m970.9 678.5h-111.8v-6h111.8z"/>
				<path id="&lt;Path&gt;" class="s9" d="m888 672.5v6h-28.9v-6z"/>
			</g>
			<g id="&lt;Group&gt;">
				<g id="&lt;Group&gt;">
					<path id="&lt;Compound Path&gt;" fill-rule="evenodd" class="s110" d="m787.1 606q-2.2 3.5-4.7 6.4l2.8 7.8-11.8 8.9-1.2-8.8c-2.4 1.1-4.9 1.7-7.2 1.7l-1.2 4-1.6 5.9-10.5-4.1 4-9.3c-1.8-1.5-3.3-3.5-4.5-5.9l-6.6 6.2-3.1-14.7 6.9-4.3c-0.1-3.2 0.1-6.6 0.8-10.2l-6.5-1.1 6.1-16.7 5.7 3.2c1.7-3.1 3.6-5.9 5.7-8.3l-2.7-7.9 11.8-8.9 1.2 8.9c2.4-1.1 4.8-1.7 7.2-1.7l2.6-9.4 10.7 3.5-4.1 9.3q0.6 0.5 1.2 1.1 2 2.1 3.3 4.9l6.6-6.3 3.1 14.7-6.8 4.3c0.1 2.7-0.1 5.5-0.6 8.4q-0.1 0.9-0.3 1.8l6.6 1.1-6.1 16.7-5.7-3.2q-0.6 1-1.1 2zm-15.8-16.5q0 0 0 0 0 0 0 0zm0 0l5.9-16.7c2 1.5-2.6 7.5-5.9 16.7zm-5.8 16.7c1.5-0.4 2.6-7.4 5.8-16.6z"/>
				</g>
				<path id="&lt;Compound Path&gt;" fill-rule="evenodd" class="s111" d="m787.1 606l-9.2 5.6 7.3 8.6-11.8 8.9-9.6-3.1-5.5-1.8 1.5 2.9 2.4 4.8-15.1-4.9-10.5-4.1 3.4-7.8-10.5-1.2 5.5-19.8 11-30.5-3.6-9.7 11.8-8.9 9.2 4.4 1.9-7.2 10.6 4.1 4.4 1.4 10.7 3.5-2.9 5.8 9.9 3.2 2.3 14.3-6.9 3.4-0.7 9.2 1 0.5 6.3 2.9-6.1 16.7zm-4.2-50.7l2.8 6.7 2.4-5zm-17.4 51l5.8-16.7 5.9-16.7c-5.9-2.1-13.3 3.7-16.5 13-3.2 9.2-1.1 18.3 4.8 20.4z"/>
				<g id="&lt;Group&gt;">
					<path id="&lt;Compound Path&gt;" fill-rule="evenodd" class="s112" d="m773.1 599.1c-1.7 3.1-3.6 5.9-5.8 8.4l2.8 7.8-11.8 8.9-1.2-8.8c-2.4 1.1-4.8 1.6-7.2 1.7l-2.8 9.9-10.5-4.1 4-9.3c-1.8-1.5-3.3-3.6-4.5-6l-6.6 6.3-3.1-14.7 6.9-4.3c-0.1-3.2 0.2-6.7 0.9-10.2l-6.6-1.1 6.1-16.7 5.7 3.2c1.7-3.1 3.6-5.9 5.7-8.3l-2.7-7.9 11.8-8.9 1.2 8.8c2.4-1 4.8-1.6 7.2-1.6l2.7-10 10.6 4.1-4.1 9.3c1.9 1.5 3.4 3.6 4.5 6l6.6-6.3 3.2 14.7-6.9 4.3c0.1 3.2-0.2 6.7-0.9 10.2l6.6 1.1-6.1 16.7zm-6.3-10.8c3.2-9.2 1.1-18.3-4.7-20.4-5.9-2-13.3 3.8-16.5 13-3.2 9.2-1.1 18.3 4.8 20.4 5.8 2.1 13.2-3.8 16.4-13z"/>
				</g>
				<path id="&lt;Path&gt;" class="s113" d="m794.3 579.2l-15.1-4.9 6.9-4.3 15 4.9z"/>
				<path id="&lt;Path&gt;" class="s114" d="m785.2 620.2l-15.1-4.9-2.8-7.8 15.1 4.9z"/>
				<path id="&lt;Path&gt;" class="s113" d="m775.9 546.3l15.1 4.9-2.6 5.9-5.5-1.8-2.8 2.7-8.3-2.4z"/>
				<path id="&lt;Path&gt;" class="s113" d="m757.1 615.4l0.7 4.9-7.9-3.2c3 0.5 7.2-1.7 7.2-1.7z"/>
				<path id="&lt;Path&gt;" class="s113" d="m767.8 575.2c-1.5 1.1-3.4 3.6-3.4 3.6l-13.3-7c13.2-11.3 16.7 3.4 16.7 3.4z"/>
			</g>
			<path id="&lt;Path&gt;" class="s115" d="m445.6 73.9l12.8 25.7-8.6 3.9-12-23.6z"/>
			<path id="&lt;Path&gt;" class="s116" d="m162 667.9l11.2 12.4-4.6 5.3-11.9-13z"/>
			<path id="&lt;Path&gt;" class="s117" d="m760.2 230.7l-11.9 7.3-4.8-9.1 13.1-7.6z"/>
			<path id="&lt;Path&gt;" class="s117" d="m819.1 690.2l-17.1 12.1-4.8-9 16.6-9.8z"/>
			<g id="&lt;Group&gt;">
				<path id="&lt;Path&gt;" class="s118" d="m796.5 168.6l-2.9-67.3h88.1l-3.6 67.1z"/>
				<path id="&lt;Path&gt;" class="s119" d="m796.5 168.6h-2.9l-2.7-63.4 2.7-3.9z"/>
				<path id="&lt;Path&gt;" class="s9" d="m822.8 118.2l-7.7-0.2 0.8 35.6 6.9-0.2v4.8l-11.9 1.2-1.9-46.2 13.8 1.5z"/>
				<path id="&lt;Path&gt;" class="s9" d="m851.2 114.7l13.8-1.5-1.9 46.2-11.9-1.2v-4.8l6.9 0.2 0.8-35.6-7.7 0.2z"/>
			</g>
			<g id="&lt;Group&gt;">
				<path id="&lt;Path&gt;" class="s120" d="m133.1 315.8l-2.5-45.7h60.1l-2 45.9z"/>
				<path id="&lt;Path&gt;" class="s121" d="m190.7 270.1l1.8 2.7-1.8 43.2h-2z"/>
				<path id="&lt;Path&gt;" class="s9" d="m167.5 279.3c0 0 6.6-0.2 7.8 0.3 1.1 0.5-0.3 11.3-0.3 11.3l2.6 2.4-2.4 2.3c0 0 0.1 10.9-1.5 11.8-1.5 0.9-6.8 0-6.8 0v-2.7c0 0 4.3 0.3 5-0.3 0.7-0.6 0.7-10.1 0.7-10.1l1.1-1.2-1.1-1.4c0 0 0.2-6.8 0.1-8.7-0.1-1.2-5.2-1.3-5.2-1.3z"/>
				<path id="&lt;Path&gt;" class="s9" d="m152.4 281.7c0 0-5 0.1-5.1 1.3-0.1 1.9 0.1 8.7 0.1 8.7l-1.2 1.4 1.2 1.2c0 0-0.1 9.5 0.7 10.1 0.7 0.6 5 0.3 5 0.3v2.7c0 0-5.3 0.9-6.9 0-1.5-0.9-1.4-11.8-1.4-11.8l-2.4-2.3 2.6-2.4c0 0-1.5-10.8-0.3-11.3 1.2-0.5 7.7-0.3 7.7-0.3z"/>
			</g>
			<g id="&lt;Group&gt;">
				<g id="&lt;Group&gt;">
					<path id="&lt;Compound Path&gt;" fill-rule="evenodd" class="s89" d="m695.7 174.7l-14.7-38.6 38.2 8zm-13.2-37.2l13.5 35.2 21.4-27.9z"/>
				</g>
				<g id="&lt;Group&gt;">
					<path id="&lt;Path&gt;" class="s89" d="m801.2 721l-0.8-0.6 13-17.6 0.8 0.6z"/>
				</g>
				<g id="&lt;Group&gt;">
					<path id="&lt;Path&gt;" class="s89" d="m679.8 558.3l-13.9-17.3 0.8-0.6 13.9 17.3z"/>
				</g>
				<g id="&lt;Group&gt;">
					<path id="&lt;Path&gt;" class="s89" d="m251.2 679.8l-27.8-20.2 0.6-0.8 27.8 20.2z"/>
				</g>
				<g id="&lt;Group&gt;">
					<path id="&lt;Path&gt;" class="s89" d="m227.6 683.2l-0.8-0.6 20.8-27.2 0.8 0.6z"/>
				</g>
				<g id="&lt;Group&gt;">
					<path id="&lt;Path&gt;" class="s89" d="m206.4 384.7l-17.9-9.4 0.4-0.9 18 9.5z"/>
				</g>
				<g id="&lt;Group&gt;">
					<path id="&lt;Path&gt;" class="s89" d="m896.1 142.7l-0.7-0.6 20.7-23.7 0.7 0.7z"/>
				</g>
				<g id="&lt;Group&gt;">
					<path id="&lt;Path&gt;" class="s89" d="m501.6 219l-9.3-18.6 0.9-0.4 9.2 18.6z"/>
				</g>
				<g id="&lt;Group&gt;">
					<path id="&lt;Path&gt;" class="s89" d="m346.2 534.3l-0.6-0.7 23.8-20 0.6 0.8z"/>
				</g>
			</g>
		</g>
	</g>
</svg>